<?xml version="1.0" standalone="no"?>
<!DOCTYPE svg PUBLIC "-//W3C//DTD SVG 1.1//EN" "http://www.w3.org/Graphics/SVG/1.1/DTD/svg11.dtd" >
<svg xmlns="http://www.w3.org/2000/svg">
<metadata>Generated by IcoMoon</metadata>
<defs>
<font id="icomoon" horiz-adv-x="1024">
<font-face units-per-em="1024" ascent="960" descent="-64" />
<missing-glyph horiz-adv-x="1024" />
<glyph unicode="&#x20;" horiz-adv-x="512" d="" />
<glyph unicode="&#xe600;" glyph-name="up" d="M358.064-46v405.056h-162.032l324.048 405.072 324.032-405.072h-162v-405.056c81.008 0 243.024 0 243.024 0 52.864 0 81.008 24 81.008 81.024v810.112c0 60.864-22.16 81.008-81.008 81.008h-810.112c-45.024 0.016-81.024-30.144-81.024-81.008v-810.112c0-55.024 30-81.024 81.008-81.024h243.056z" />
<glyph unicode="&#xe601;" glyph-name="arrow-down-long" d="M877.254 338.746l-320-320c-24.992-24.994-65.514-24.994-90.508 0l-320 320c-24.994 24.994-24.994 65.516 0 90.51s65.516 24.996 90.51 0l210.744-210.746v613.49c0 35.346 28.654 64 64 64s64-28.654 64-64v-613.49l210.746 210.746c12.496 12.496 28.876 18.744 45.254 18.744s32.758-6.248 45.254-18.746c24.994-24.994 24.994-65.514 0-90.508z" />
<glyph unicode="&#xe602;" glyph-name="arrow-right-long" d="M621.254 82.746l320 320c24.994 24.992 24.994 65.516 0 90.51l-320 320c-24.994 24.992-65.516 24.992-90.51 0s-24.994-65.516 0-90.51l210.746-210.746h-613.49c-35.346 0-64-28.654-64-64s28.654-64 64-64h613.49l-210.746-210.746c-12.496-12.496-18.744-28.876-18.744-45.254s6.248-32.758 18.744-45.254c24.994-24.994 65.516-24.994 90.51 0z" />
<glyph unicode="&#xe603;" glyph-name="arrow-up-long" d="M877.254 557.254l-320 320c-24.992 24.994-65.514 24.994-90.508 0l-320-320c-24.994-24.994-24.994-65.516 0-90.51s65.516-24.996 90.51 0l210.744 210.746v-613.49c0-35.346 28.654-64 64-64s64 28.654 64 64v613.49l210.746-210.746c12.496-12.496 28.876-18.744 45.254-18.744s32.758 6.248 45.254 18.746c24.994 24.994 24.994 65.514 0 90.508z" />
<glyph unicode="&#xe604;" glyph-name="view1" d="M975.6 409.488c-21.696 31.168-196.544 280.864-214.224 305.52-43.12 60.416-64.72 77.712-97.024 77.712-32.496 0-62.336-22.736-67.392-50.96-0.96-5.44-6.592-92.816-9.568-142.416-18.064 0-17.408 12.8-29.824 25.216-2.096 2.208-29.248 2.208-31.344 0-12.416-12.416-11.76-25.216-29.84-25.216-2.944 49.6-8.608 136.976-9.552 142.416-5.168 28.224-34.912 50.96-67.392 50.96-32.32 0-53.92-17.312-97.136-77.712-17.584-24.656-192.416-274.352-214.128-305.52-18.048-25.792-32.096-74.848-32.096-103.424 0-116.528 95.68-210.784 212.208-210.784 116.336 0 211.84 94.256 211.84 210.784v53.040c0 20.56-0.864 31.392 23.12 31.392h37.2c23.984 0 26.56-10.832 26.56-31.392v-53.040c0-116.528 93.872-210.784 210.224-210.784 116.496 0 210.768 94.256 210.768 210.784-0.096 28.576-14.336 77.616-32.4 103.424v0zM612.048 681.552c18.848 27.056 48.368 40.72 85.264 39.856 26.784-0.656 48.288-8.88 49.136-9.28 5.728-2.192 8.512-8.688 6.32-14.336-2.304-5.728-8.704-8.592-14.448-6.32-0.464 0.208-19.296 7.28-42.144 7.76-29.248 0.56-51.424-9.664-65.856-30.4-2.128-3.056-5.552-4.688-9.072-4.688-2.208 0-4.4 0.592-6.32 2-5.168 3.552-6.32 10.432-2.88 15.408v0zM337.424 712.128c0.848 0.4 22.256 8.624 49.136 9.28 36.88 0.96 66.416-12.8 85.264-39.76 3.424-5.056 2.208-11.936-2.752-15.488-2.016-1.328-4.208-2-6.416-2-3.456 0-6.864 1.632-9.072 4.784-35.2 50.272-107.344 22.832-108 22.544-5.76-2.272-12.24 0.592-14.448 6.32-2.224 5.632 0.528 12.128 6.288 14.32v0zM287.040 154.16c-83.84 0-151.792 68.288-151.792 151.904 0 83.728 67.952 151.808 151.792 151.808 83.648 0 151.792-68.080 151.792-151.808 0-83.632-68.16-151.904-151.792-151.904v0zM541.888 470.88c-54.224 0-98.192 17.68-98.192 39.36 0 21.808 43.968 39.392 98.192 39.392 54.304 0 98.272-17.584 98.272-39.392 0-21.68-43.968-39.36-98.272-39.36v0zM796.64 154.16c-83.648 0-151.792 68.288-151.792 151.904 0 83.728 68.16 151.808 151.792 151.808 83.824 0 151.792-68.080 151.792-151.808 0-83.632-67.968-151.904-151.792-151.904v0z" />
<glyph unicode="&#xe605;" glyph-name="Social-youtube" d="M457.184 845.68h-45.664l-30.816-118.416-32.032 118.416h-47.552c9.536-27.936 19.472-56.032 28.976-84.016 14.464-42.048 23.536-73.76 27.6-95.408v-122.144h45.168v122.144l54.32 179.424zM577.888 616.896v78.72c0 24-4.112 41.552-12.656 52.928-11.28 15.328-27.088 23.040-47.488 23.040-20.32 0-36.192-7.696-47.44-23.040-8.672-11.376-12.752-28.928-12.752-52.928v-78.72c0-23.904 4.080-41.584 12.752-52.864 11.248-15.328 27.12-23.008 47.44-23.008 20.384 0 36.208 7.68 47.488 23.008 8.544 11.28 12.656 28.96 12.656 52.864zM537.136 609.216c0-20.784-6.304-31.184-19.392-31.184-13.152 0-19.488 10.4-19.488 31.184v94.56c0 20.8 6.336 31.152 19.488 31.152 13.088 0 19.392-10.352 19.392-31.152v-94.56zM728.496 544.112v224.736h-40.72v-171.76c-9.072-12.736-17.632-19.056-25.744-19.056-5.504 0-8.656 3.216-9.552 9.536-0.512 1.328-0.512 6.288-0.512 15.856v165.44h-40.576v-177.696c0-15.84 1.36-26.624 3.648-33.408 4.032-11.392 13.056-16.736 26.224-16.736 14.816 0 30.288 9.040 46.528 27.648v-24.528h40.704zM600.816 315.952c-6.64 0-13.36-3.168-20.096-9.792v-135.6c6.736-6.704 13.456-9.856 20.096-9.856 11.616 0 17.536 9.856 17.536 29.968v94.928c-0.016 20.048-5.936 30.352-17.536 30.352zM750.336 315.952c-13.472 0-20.208-10.32-20.208-30.88v-20.56h40.272v20.56c0 20.576-6.736 30.88-20.064 30.88zM848.848 429.040c-8.128 35.392-37.12 61.568-72.064 65.44-82.688 9.28-166.384 9.28-249.68 9.28-83.312 0-167.008 0-249.68-9.28-34.912-3.872-63.92-30.048-72.048-65.44-11.648-50.592-11.728-105.648-11.728-157.664 0-51.968 0-107.136 11.6-157.648 8.128-35.424 37.12-61.552 72.064-65.488 82.688-9.248 166.368-9.28 249.664-9.248 83.296-0.032 167.008 0 249.696 9.248 34.912 3.936 63.888 30.064 72.032 65.488 11.664 50.496 11.712 105.664 11.712 157.648-0.016 52.032 0.032 107.072-11.568 157.664zM383.808 383.568h-48.288v-256.432h-44.832v256.432h-47.408v42.016h140.528v-42.016zM505.536 127.12h-40.32v24.256c-16-18.352-31.216-27.312-46.048-27.312-12.992 0-21.952 5.248-25.952 16.528-2.224 6.768-3.568 17.344-3.568 33.056v175.872h40.288v-163.728c0-9.424 0-14.352 0.352-15.68 0.992-6.24 4.048-9.392 9.44-9.392 8.080 0 16.576 6.24 25.488 18.832v169.968h40.32v-222.4zM658.624 193.84c0-20.56-1.392-35.392-4.064-44.8-5.376-16.576-16.16-24.992-32.224-24.992-14.336 0-28.176 7.984-41.632 24.624v-21.568h-40.288v298.48h40.288v-97.44c13.008 15.952 26.848 24.080 41.632 24.080 16.064 0 26.848-8.416 32.224-25.056 2.672-8.976 4.064-23.712 4.064-44.72v-88.608zM810.736 230.976h-80.592v-39.392c0-20.624 6.736-30.88 20.56-30.88 9.888 0 15.696 5.392 18.016 16.16 0.368 2.192 0.88 11.104 0.88 27.28h41.136v-5.856c0-12.976-0.528-21.92-0.896-25.984-1.376-8.912-4.496-17.024-9.392-24.128-11.168-16.128-27.696-24.112-48.736-24.112-21.12 0-37.152 7.584-48.784 22.8-8.56 11.072-12.944 28.672-12.944 52.256v77.888c0 23.792 3.872 41.184 12.464 52.416 11.6 15.248 27.664 22.8 48.24 22.8 20.224 0 36.256-7.552 47.52-22.8 8.464-11.232 12.512-28.624 12.512-52.416v-46.032z" />
<glyph unicode="&#xe606;" glyph-name="Social-twitter" d="M953.92 694.48c-29.92-13.296-62.080-22.24-95.792-26.272 34.432 20.656 60.928 53.312 73.344 92.288-32.192-19.136-67.872-33.024-105.872-40.512-30.464 32.448-73.824 52.688-121.776 52.688-92.128 0-166.816-74.688-166.816-166.784 0-13.088 1.488-25.808 4.32-38-138.608 6.928-261.488 73.312-343.776 174.272-14.336-24.672-22.56-53.312-22.56-83.888 0-57.84 29.44-108.928 74.16-138.8-27.312 0.832-53.024 8.368-75.536 20.864v-2.112c0-80.784 57.504-148.224 133.776-163.536-13.984-3.776-28.752-5.872-43.936-5.872-10.736 0-21.216 1.040-31.392 3.008 21.232-66.272 82.8-114.464 155.792-115.824-57.056-44.752-128.96-71.408-207.152-71.408-13.456 0-26.704 0.8-39.76 2.336 73.792-47.264 161.472-74.912 255.728-74.912 306.768 0 474.528 254.096 474.528 474.544 0 7.2-0.192 14.4-0.448 21.6 32.496 23.488 60.752 52.848 83.168 86.32z" />
<glyph unicode="&#xe607;" glyph-name="Social-instagramm" d="M251.2 819.696h584.768c55.568 0 100.992-45.424 100.992-100.992v-584.768c0-55.536-45.424-100.944-100.992-100.944h-584.768c-55.552 0-101.008 45.408-101.008 100.944v584.768c0 55.568 45.456 100.992 101.008 100.992zM723.328 732.336c-19.488 0-35.424-15.984-35.424-35.488v-84.736c0-19.504 15.936-35.424 35.424-35.424h88.928c19.488 0 35.408 15.92 35.408 35.424v84.736c0 19.504-15.92 35.488-35.408 35.488h-88.928zM848.016 486.992h-69.232c6.56-21.408 10.128-44.032 10.128-67.536 0-130.832-109.536-236.944-244.592-236.944-135.024 0-244.56 106.112-244.56 236.944 0 23.504 3.6 46.112 10.144 67.536h-72.24v-332.352c0-17.184 14.048-31.2 31.248-31.2h547.872c17.216 0 31.248 14.016 31.248 31.2v332.352zM544.32 581.136c-87.232 0-157.984-68.512-157.984-153.136 0-84.512 70.752-153.072 157.984-153.072 87.264 0 158.032 68.56 158.032 153.072-0.016 84.624-70.768 153.136-158.032 153.136z" />
<glyph unicode="&#xe608;" glyph-name="Social-facebook" d="M727.28 404.656l19.696 152.72h-151.232v97.52c0 44.208 12.336 74.336 75.712 74.336l80.816 0.048v136.608c-13.952 1.856-61.92 6.016-117.808 6.016-116.624 0-196.4-71.184-196.4-201.888v-112.64h-131.904v-152.72h131.904v-391.872h157.68v391.872h131.536z" />
<glyph unicode="&#xe609;" glyph-name="smile" d="M521.184 47.312c-216.768 0-393.184 176.4-393.184 393.264 0 216.768 176.416 393.168 393.184 393.168 216.848 0 393.184-176.4 393.184-393.184 0-216.848-176.336-393.248-393.184-393.248v0zM521.184 776.224c-185.024 0-335.664-150.624-335.664-335.664 0-185.104 150.656-335.664 335.664-335.664 185.088 0 335.664 150.56 335.664 335.664 0 185.040-150.56 335.664-335.664 335.664v0zM521.184 164.064c-122.736 0-229.088 78.96-264.608 196.336-4.64 15.152 3.968 31.248 19.136 35.808 15.232 4.688 31.328-3.92 35.872-19.152 27.712-91.552 113.904-155.408 209.6-155.408 96.384 0 182.752 64.496 210.016 156.832 4.48 15.232 20.416 24.064 35.728 19.44 15.232-4.48 23.92-20.416 19.44-35.664-34.384-116.672-143.44-198.192-265.184-198.192v0zM470.288 478.512c0-20.912-17.008-37.936-38.016-37.936-20.928 0-37.952 17.024-37.952 37.936 0 21.008 17.024 38.016 37.952 38.016 21.008 0 38.016-17.008 38.016-38.016v0zM648.048 478.512c0-20.912-16.944-37.936-37.936-37.936-20.944 0-37.952 17.024-37.952 37.936 0 21.008 17.008 38.016 37.952 38.016 20.992 0 37.936-17.008 37.936-38.016v0z" />
<glyph unicode="&#xe60a;" glyph-name="print" d="M167.584 105.152h708.016c42.784 0 77.504 34.736 77.504 77.504v254.608c0 42.784-34.72 77.504-77.504 77.504h-86.848l-12.64 263.264h-509.888l-12.656-263.264h-86c-42.784 0-77.488-34.72-77.488-77.504v-254.608c0.016-42.768 34.72-77.504 77.504-77.504v0zM777.616 149.104h-526.608v87.696h526.608v-87.696zM889.232 389.712c11.44 0 20.64-9.216 20.64-20.656 0-11.424-9.2-20.704-20.64-20.704-11.424 0-20.64 9.28-20.64 20.704 0 11.44 9.216 20.656 20.64 20.656v0zM221.728 456.208h43.648l2.864 58.576 11.936 248.608h482.016l12-248.608 2.8-58.576h44.48c8.080 0 14.64-6.496 14.64-14.576 0-8.144-6.56-14.656-14.64-14.656h-599.744c-8.064 0-14.656 6.496-14.656 14.656 0 8.064 6.592 14.576 14.656 14.576v0zM338.8 690.256h365.664v-29.216h-365.664v29.216zM338.8 617.12h365.664v-29.232h-365.664v29.232zM368 192.944h292.544v-29.28h102.416v58.576h-497.296v-58.576h102.336v29.28z" />
<glyph unicode="&#xe60b;" glyph-name="price" d="M727.344 721.472c20.368-6.32 37.856-15.312 50-26.688h165.168v-285.28c8.672-9.856 13.584-21.536 13.584-35.008v-12.528c0-7.264-1.44-14.032-4.192-20.24l4.192-0.144v-32.528c0-6.976-1.296-13.44-3.888-19.36l3.888-0.144v-32.512c0-6.352-1.152-12.288-3.312-17.808h16.464v482.24h-241.904zM548.72 721.472h-463.6v-482.24h407.792c-6.624 7.792-10.832 16.768-12.272 26.768h-368.768v428.624h386.704c12.288 11.536 29.76 20.528 50.144 26.848v0zM769.248 621.776c0-28.88-58.672-52.448-131.216-52.448s-131.344 23.568-131.344 52.448v-32.368c0-29.040 58.8-52.608 131.344-52.608 72.384 0 131.216 23.552 131.216 52.608v32.368zM769.248 569.776c0-29.040-58.672-52.48-131.216-52.48s-131.344 23.424-131.344 52.48v-32.544c0-29.024 58.8-52.448 131.344-52.448 72.384 0 131.216 23.424 131.216 52.448v32.544zM769.248 517.744c0-29.088-58.672-52.608-131.216-52.608s-131.344 23.52-131.344 52.608v-32.512c0-29.040 58.8-52.608 131.344-52.608 72.384 0 131.216 23.568 131.216 52.608v32.512zM769.248 654.736c0 29.024-58.672 52.464-131.216 52.464s-131.344-23.424-131.344-52.464v-12.432c0-29.040 58.8-52.624 131.344-52.624 72.384 0 131.216 23.568 131.216 52.624v12.432zM638.032 615.424c-72.112 0-118.208 23.264-118.208 39.328 0 16.016 46.096 39.44 118.208 39.44s118.064-23.408 118.064-39.44c0-16.064-45.952-39.328-118.064-39.328v0zM769.248 445.744v19.792c0-7.36-3.904-14.416-10.848-20.96 3.616 0.48 7.232 0.88 10.848 1.168v0zM638.032 413.072c-72.544 0-131.344 23.424-131.344 52.464v-32.48c0-29.072 58.8-52.448 131.344-52.448 3.168 0 6.352 0.112 9.392 0.112 2.016 13.328 10.112 24.592 22.4 33.952-10.128-0.976-20.816-1.6-31.792-1.6v0zM506.8 409.936v-32.512c0-29.072 58.688-52.448 131.232-52.448 3.024 0 5.92 0 8.816 0.144v32.48c-2.896-0.112-5.776-0.112-8.816-0.112-72.544 0-131.232 23.376-131.232 52.448v0zM506.8 357.728v-32.368c0-29.040 58.688-52.592 131.232-52.592 3.024 0 5.92 0.144 8.816 0.144v32.512c-2.896 0-5.776-0.144-8.816-0.144-72.544 0-131.232 23.552-131.232 52.448v0zM506.8 305.744v-32.56c0-29.008 58.688-52.448 131.232-52.448 3.024 0 5.92 0 8.816 0.144v32.368c-2.896 0-5.776-0.144-8.816-0.144-72.544 0-131.232 23.6-131.232 52.64v0zM798.144 289.12c-72.576 0-131.36 23.408-131.36 52.464v-32.528c0-28.896 58.784-52.448 131.36-52.448 72.544 0 131.216 23.568 131.216 52.448v32.544c0-29.072-58.672-52.48-131.216-52.48v0zM798.144 236.96c-72.576 0-131.36 23.536-131.36 52.608v-32.512c0-29.040 58.784-52.448 131.36-52.448 72.544 0 131.216 23.408 131.216 52.448v32.512c0-29.088-58.672-52.608-131.216-52.608v0zM798.144 184.912c-72.576 0-131.36 23.552-131.36 52.448v-32.48c0-28.944 58.784-52.448 131.36-52.448 72.544 0 131.216 23.52 131.216 52.448v32.48c0-28.912-58.672-52.448-131.216-52.448v0zM798.144 426.96c-72.576 0-131.36-23.376-131.36-52.448v-12.384c0-29.072 58.784-52.608 131.36-52.608 72.544 0 131.216 23.536 131.216 52.608v12.384c0 29.072-58.672 52.448-131.216 52.448v0zM798.144 335.232c-72.112 0-118.208 23.264-118.208 39.264 0 16.080 46.096 39.488 118.208 39.488 72.128 0 118.080-23.408 118.080-39.488 0-16-45.952-39.264-118.080-39.264v0zM479.936 279.408v375.328c0 9.792 2.752 18.64 7.52 26.56h-362.16v-401.888h354.64zM255.072 569.168c11.552 11.584 26.864 18.192 46.096 20.096v29.184h22.832v-28.448c22.128-1.184 38.448-4.624 49.424-10.688v-42.352c-14.72 8.96-31.216 14.336-49.424 16.352v-59.408c22.832-8.256 39.328-17.648 49.28-28.336 9.84-10.544 14.864-23.376 14.864-38.448 0-17.296-5.616-31.312-16.768-41.856-10.976-10.592-26.848-17.056-47.376-19.408v-33.952h-22.976v32.992c-21.072 0.144-40.912 5.008-59.12 14.4v43.504c6.064-4.928 15.056-9.536 27.040-13.68 12-4.208 22.832-6.544 32.080-7.088v56.944c-24.416 9.104-41.024 18.896-50.016 29.632-8.944 10.544-13.424 23.376-13.424 38.688 0 16.464 5.76 30.336 17.488 41.872v0zM798.144 453.84c49.136 0 100.592-10.368 130.944-32.336v259.792h-140.608c4.912-7.92 7.664-16.768 7.664-26.56v-200.912c0.56-0.144 1.28 0.016 2 0.016v0zM301.024 502.992v49.712c-14.464-2.592-21.664-10.256-21.664-22.672-0.016-10.848 7.2-19.84 21.664-27.040v0zM346.384 424.976c0 10.224-7.52 18.64-22.384 25.008v-47.44c14.864 2.336 22.384 9.712 22.384 22.432v0z" />
<glyph unicode="&#xe60d;" glyph-name="owner" d="M318.64 628.352c6.336-83.168 39.408-47.328 46.224-83.76 11.344-60.576 64.976-104.384 98.368-119.52 19.472-8.832 39.536-13.264 60.624-13.616v-0.032c0.080 0 0.144 0.016 0.224 0.016s0.144-0.016 0.208-0.016v0.032c21.088 0.336 41.152 4.784 60.64 13.616 33.392 15.136 87.008 58.944 98.352 119.52 6.832 36.432 39.904 0.608 46.24 83.76 0 33.152-18.048 41.392-18.048 41.392s9.152 49.056 12.768 86.8c4.448 47.056-27.472 168.576-197.696 168.576-0.768 0-1.456-0.032-2.176-0.048-0.032 0-0.064 0-0.064 0v0c-0.096 0-0.16 0-0.224 0-0.096 0-0.16 0-0.24 0v0c-0.016 0-0.048 0-0.080 0-0.72 0-1.408 0.048-2.16 0.048-170.24 0-202.144-121.52-197.696-168.56 3.6-37.744 12.768-86.8 12.768-86.8s-18.032-8.256-18.032-41.408v0zM955.632 187.536c7.872 13.76-26.096 22.768-45.376 32.576-85.872 43.68-210.32 98.256-216.288 100.176-0.080 0.032-0.128 0.032-0.208 0.048-3.488 1.248-7.232 1.936-11.168 1.936-14.576 0-26.976-9.344-31.552-22.352-0.016 0.016-0.048 0.016-0.080 0.032-22.16-53.408-62.88-148.608-88.144-194.512l-6.096 128.704c0 0 37.968 80.576 42.112 87.968 9.792 17.296 0.992 32.016-17.36 32.016h-112.352c-18.336 0-27.152-14.72-17.376-32.016 4.16-7.392 42.112-87.968 42.112-87.968l-6.080-128.704c-25.28 45.904-65.984 141.104-88.144 194.512-0.016-0.016-0.048-0.016-0.064-0.032-4.592 13.008-16.96 22.352-31.568 22.352-3.904 0-7.664-0.688-11.168-1.936-0.048-0.016-0.112-0.016-0.176-0.048-5.984-1.92-130.432-56.48-216.288-100.176-16.832-8.544-48.496-15.712-41.072-28.096 207.568-346.352 684.496-304.496 856.336-4.48z" />
<glyph unicode="&#xe610;" glyph-name="mail1" d="M963.84 473.536l-66.080 66.112c-9.040 9.024-19.392 13.344-31.072 13.344-10.336 0-19.024-3.424-26.32-10.784l-52.272-52.672-213.28-212.432c-3.056-3.008-5.008-6.976-6.080-10.848l-35.408-125.2c-2.592-9.184-1.296-16.832 5.184-23.312 4.768-4.768 10.384-6.88 16.864-6.88 1.712 0 5.584 0.816 7.328 0.816l124.368 36.288c4.72 0.832 8.624 3.024 10.784 6.080l213.296 212.432 51.808 53.12c7.232 7.376 11.648 15.952 12.496 25.456 0.032 11.248-3.824 20.736-11.616 28.48v0zM668.512 192.016l-78.576-22.848 22.848 78.56 191.296 191.248 56.576-55.648-192.144-191.312zM894.336 416.96l-56.576 55.712 29.76 29.872 55.728-55.728-28.912-29.856zM473.344 301.712c4.688-4.768 10.352-6.944 16.832-6.944h0.848c7.376 0 13.040 2.176 17.728 6.944l332.464 340.656v-56.576h47.504v129.12c0 29.328-22.432 53.072-51.808 53.072h-692.576c-14.704 0-27.216-5.168-37.152-15.472-9.936-10.384-15.104-22.944-15.104-37.6v-551.824c0-14.304 5.072-26.896 15.104-37.152 9.808-10.032 22.448-15.056 37.152-15.056h362.656v47.904h-362.656c-3.056 0-4.32 1.248-4.32 4.32v479.264l333.328-340.656zM140.016 714.928c0 3.408 1.264 5.184 4.32 5.184h692.56c3.008 0 4.32-1.76 4.32-5.184v-4.32l-350.192-358.416-351.008 358.416v4.32z" />
<glyph unicode="&#xe611;" glyph-name="mailmanager" d="M122.384 714.224l335.36-265.696c15.152-11.904 36.224-17.296 56.48-16.32 20.384-0.992 41.28 4.24 56.624 16.32l335.376 265.696c26.768 21.216 20.72 38.512-13.392 38.512h-757.088c-34.080 0-40.144-17.296-13.36-38.512v0zM889.664 618.128l-330.688-251.040c-12.368-9.248-28.56-13.824-44.608-13.664-16.192-0.176-32.384 4.4-44.752 13.664l-330.672 251.040c-24.608 18.576-44.64 8.544-44.64-22.208v-411.808c0-30.768 25.168-56.096 55.936-56.096h728.064c30.752 0 55.936 25.328 55.936 56.096v411.808c0.016 30.752-19.984 40.784-44.576 22.208v0z" />
<glyph unicode="&#xe614;" glyph-name="holder" d="M824.768 559.728c-2.688 5.584-8.288 9.152-14.512 9.152h-47.232c-30.128 163.152-173.248 287.12-344.992 287.12-193.424 0-350.832-157.408-350.832-350.816 0-193.504 157.392-350.912 350.832-350.912 0.064 0 0.144 0 0.224 0-0.64 19.488-0.864 38.992-0.864 58.512 0 1.824 0.192 3.536 0.272 5.312-158.080 0.208-286.656 128.88-286.656 287.088 0 158.256 128.768 287.024 287.024 287.024 136.336 0 250.592-95.664 279.696-223.248h-46.928c-6.24 0-11.824-3.648-14.432-9.232-2.672-5.584-1.808-12.208 2.224-16.96l79.712-95.712c3.008-3.632 7.488-5.68 12.224-5.68s9.216 2.048 12.224 5.68l79.792 95.712c3.952 4.752 4.816 11.376 2.224 16.96zM418.032 776.288c-17.584 0-31.856-14.272-31.856-31.936v-193.504c-14.432-10.096-23.888-26.832-23.888-45.664 0-30.832 24.992-55.84 55.824-55.84 8.432 0 16.32 1.984 23.504 5.36l110.96-64.032c5.040-2.912 10.464-4.336 15.92-4.336 11.040 0 21.76 5.744 27.664 16 8.768 15.216 3.568 34.704-11.664 43.536l-111.12 64.112c-1.488 16.864-10.256 31.632-23.408 40.848v193.504c0 17.6-14.272 31.952-31.936 31.952v0zM418.032 481.2c-13.152 0-23.904 10.72-23.904 23.984 0 13.152 10.752 23.872 23.904 23.872 13.248 0 23.968-10.704 23.968-23.872 0-13.248-10.72-23.984-23.968-23.984v0zM962.032 172.672l-90.16 90.112v135.184h-60.064v-75.12l-90.112 90.128-240.352-240.304v-15.056h60.080v-150.208h150.224v90.16h60.048v-90.16h150.272v150.208h60.064v15.056z" />
<glyph unicode="&#xe615;" glyph-name="galochka" d="M497.312 98.528l-464.976 440.8 80.768 84.816 358.16-344.016 26.048-181.6zM962.288 690.896l-90.304 74.592-400.72-485.344 26.048-181.616 464.976 592.368z" />
<glyph unicode="&#xe616;" glyph-name="star" d="M487.264 853.12c5.696 11.616 17.392 18.88 30.272 18.88s24.672-7.264 30.368-18.88l108.656-220.352c4.976-9.936 14.448-16.848 25.504-18.496l243.28-35.328c12.704-1.824 23.28-10.768 27.232-23.008 3.952-12.224 0.64-25.664-8.56-34.672l-175.92-171.52c-8.016-7.728-11.6-18.96-9.744-29.904l41.488-242.288c2.224-12.688-3.024-25.488-13.424-33.12-10.4-7.552-24.208-8.544-35.616-2.576l-217.536 114.352c-9.84 5.264-21.616 5.264-31.456 0l-217.6-114.272c-11.344-6.064-25.136-5.056-35.632 2.48-10.384 7.648-15.552 20.432-13.424 33.12l41.472 242.288c1.936 10.96-1.728 22.176-9.664 29.904l-176 171.52c-9.216 8.992-12.528 22.432-8.576 34.672 3.968 12.256 14.56 21.184 27.328 23.008l243.216 35.328c11.008 1.664 20.608 8.56 25.488 18.496l108.848 220.368z" />
<glyph unicode="&#xe617;" glyph-name="catalog" d="M508.096 842.672h-405.328c-7.456 0-13.52-6.064-13.52-13.52v-797.152h54.032v121.6c0 7.456 6.080 13.52 13.52 13.52h54.032c7.472 0 13.52-6.064 13.52-13.52v-121.6h297.28v797.136c0 7.472-6.080 13.536-13.536 13.536v0zM224 230.368c0-3.488-2.88-6.368-6.368-6.368h-64c-3.568 0-6.448 2.88-6.448 6.368v64c0 3.568 2.88 6.432 6.448 6.432h64c3.488 0 6.368-2.88 6.368-6.432v-64zM224 371.184c0-3.504-2.88-6.368-6.368-6.368h-64c-3.568 0-6.448 2.88-6.448 6.368v64c0 3.568 2.88 6.448 6.448 6.448h64c3.488 0 6.368-2.88 6.368-6.448v-64zM224 512c0-3.568-2.88-6.368-6.368-6.368h-64c-3.568 0-6.448 2.8-6.448 6.368v64c0 3.568 2.88 6.368 6.448 6.368h64c3.488 0 6.368-2.8 6.368-6.368v-64zM224 652.816c0-3.568-2.88-6.448-6.368-6.448h-64c-3.568 0-6.448 2.88-6.448 6.448v64c0 3.504 2.88 6.368 6.448 6.368h64c3.488 0 6.368-2.864 6.368-6.368v-64zM339.184 230.368c0-3.504-2.864-6.368-6.368-6.368h-64c-3.568 0-6.448 2.88-6.448 6.368v64c0 3.568 2.88 6.432 6.448 6.432h64c3.504 0 6.368-2.88 6.368-6.432v-64zM339.184 371.184c0-3.504-2.864-6.368-6.368-6.368h-64c-3.568 0-6.448 2.88-6.448 6.368v64c0 3.568 2.88 6.448 6.448 6.448h64c3.504 0 6.368-2.88 6.368-6.448v-64zM339.184 512c0-3.568-2.864-6.368-6.368-6.368h-64c-3.568 0-6.448 2.8-6.448 6.368v64c0 3.568 2.88 6.368 6.448 6.368h64c3.504 0 6.368-2.8 6.368-6.368v-64zM339.184 652.816c0-3.568-2.864-6.448-6.368-6.448h-64c-3.568 0-6.448 2.88-6.448 6.448v64c0 3.504 2.88 6.368 6.448 6.368h64c3.504 0 6.368-2.864 6.368-6.368v-64zM454.368 230.368c0-3.488-2.8-6.368-6.368-6.368h-64c-3.568 0-6.368 2.88-6.368 6.368v64c0 3.568 2.8 6.432 6.368 6.432h64c3.568 0 6.368-2.88 6.368-6.432v-64zM454.368 371.184c0-3.504-2.8-6.368-6.368-6.368h-64c-3.568 0-6.368 2.88-6.368 6.368v64c0 3.568 2.8 6.448 6.368 6.448h64c3.568 0 6.368-2.88 6.368-6.448v-64zM454.368 512c0-3.568-2.8-6.368-6.368-6.368h-64c-3.568 0-6.368 2.8-6.368 6.368v64c0 3.568 2.8 6.368 6.368 6.368h64c3.568 0 6.368-2.8 6.368-6.368v-64zM454.368 652.816c0-3.568-2.8-6.448-6.368-6.448h-64c-3.568 0-6.368 2.88-6.368 6.448v64c0 3.504 2.8 6.368 6.368 6.368h64c3.568 0 6.368-2.864 6.368-6.368v-64zM960.272 306.8v21.44l-185.264 114.992-185.264-114.992v-21.44h18.48v-222.544h-14.048v-62.288h361.664v62.288h-14.048v222.544h18.48zM731.328 110.576h-73.84v73.84h73.84v-73.84zM731.328 248.592h-73.84v73.84h73.84v-73.84zM892.512 110.576h-73.84v73.84h73.84v-73.84zM892.512 248.592h-73.84v73.84h73.84v-73.84z" />
<glyph unicode="&#xe618;" glyph-name="buyer" d="M165.984 258.704c125.776-125.792 312.88-144.848 458.96-57.2 0 0 10.576 6.304 19.472-2.608l155.872-155.872c38.64-38.608 92.64-47.808 126.88-13.568l5.904 5.888c34.256 34.256 25.040 88.256-13.568 126.88l-156.304 156.272c-8.496 8.496-2.208 19.056-2.208 19.056 87.648 146.096 68.576 333.184-57.2 458.992-148.288 148.272-389.552 148.272-537.824 0s-148.272-389.552 0.016-537.84v0zM633.584 328.928c-109.568-109.568-287.84-109.568-397.392 0-109.552 109.584-109.552 287.84 0 397.408 109.568 109.552 287.84 109.552 397.392 0 109.552-109.584 109.552-287.84 0-397.408v0zM207.856 482.72h57.216v-143.088h143.152v85.872h57.216v-85.872h143.088v143.088h57.232v14.336l-228.96 228.944-85.856-85.872v71.552h-57.216v-128.784l-85.872-85.856v-14.32z" />
<glyph unicode="&#xe619;" glyph-name="arrowright" d="M784.080 489.264l-350.432 350.416c-24.8 24.816-65.024 24.816-89.84 0l-89.856-89.84c-24.816-24.816-24.816-65.056 0-89.872l218.8-218.784-218.816-218.784c-24.816-24.816-24.816-65.040 0-89.872l89.856-89.84c24.816-24.816 65.040-24.816 89.84 0l350.448 350.432c13.232 13.216 19.168 30.784 18.32 48.064 0.848 17.296-5.088 34.864-18.32 48.080zM694.256 572.832c-12.4 12.416-28.688 18.624-44.944 18.624 16.256-0.016 32.528-6.208 44.944-18.624zM694.256 309.568v0z" />
<glyph unicode="&#xe61b;" glyph-name="home" d="M786.944 605.088v274.912h-117.888v-157.088l-157.088 157.088-471.248-432h117.856v-432h274.864v235.664h157.072v-235.664h274.944v432h117.824z" />
<glyph unicode="&#xe900;" glyph-name="mail" d="M512 426.125l512-490.125h-1024l512 490.125zM512 960l-512-384.003v-551.372l350.183 335.251-259.686 204.004 421.503 316.121 421.49-316.121-259.686-204.062 350.196-335.253v551.432l-512 384.003z" />
<glyph unicode="&#xe901;" glyph-name="view" horiz-adv-x="1049" d="M1008.61 486.121c-51.569 84.391-120.959 152.154-208.064 203.391-87.137 51.203-179.155 76.815-276.066 76.815-96.87 0-188.885-25.605-276.024-76.815-87.147-51.236-156.496-119-208.064-203.391-7.381-12.887-11.067-25.605-11.067-38.123s3.681-25.245 11.067-38.123c51.569-84.391 120.918-152.185 208.064-203.399 87.137-51.203 179.155-76.803 276.024-76.803 96.91 0 188.929 25.537 276.066 76.537 87.106 51.041 156.496 118.912 208.064 203.669 7.381 12.877 11.067 25.566 11.067 38.123 0 12.514-3.681 25.235-11.067 38.123v0zM405.94 637.282c32.992 32.962 72.504 49.445 118.535 49.445 7.392 0 13.653-2.585 18.814-7.714 5.138-5.16 7.714-11.433 7.714-18.814 0-7.348-2.575-13.609-7.714-18.78-5.16-5.16-11.422-7.714-18.78-7.714-31.693 0-58.788-11.26-81.243-33.715-22.487-22.497-33.715-49.586-33.715-81.243 0-7.392-2.585-13.653-7.747-18.814-5.172-5.172-11.433-7.714-18.78-7.714-7.381 0-13.653 2.575-18.814 7.714-5.128 5.16-7.714 11.422-7.714 18.814 0 46.031 16.493 85.544 49.445 118.535v0zM764.611 267.561c-73.863-44.75-153.921-67.139-240.133-67.139s-166.227 22.348-240.122 67.139c-73.863 44.745-135.303 104.894-184.286 180.437 56.005 86.944 126.196 151.992 210.553 195.080-22.462-38.326-33.723-79.76-33.723-124.332 0-68.162 24.252-126.456 72.678-174.91 48.445-48.455 106.778-72.678 174.901-72.678 68.174 0 126.456 24.213 174.91 72.678s72.71 106.748 72.71 174.91c0 44.576-11.27 86.008-33.723 124.332 84.357-43.089 154.545-108.137 210.553-195.080-48.983-75.544-110.423-135.666-184.316-180.437v0z" />
<glyph unicode="&#xe902;" glyph-name="delete" horiz-adv-x="747" d="M62.022-41.257c0-12.565 10.183-22.743 22.743-22.743h577.298c12.558 0 22.743 10.177 22.743 22.743v736.887h-622.784v-736.887zM501.339 570.226h85.286v-495.831h-85.286v495.831zM330.767 570.226h85.286v-495.831h-85.286v495.831zM160.194 570.226h85.286v-495.831h-85.286v495.831zM565.109 855.486v81.771c0 12.56-10.183 22.743-22.743 22.743h-337.907c-12.56 0-22.743-10.183-22.743-22.743v-110.2h-158.973c-12.56 0-22.743-10.183-22.743-22.743v-57.513c0-12.56 10.183-22.743 22.743-22.743h701.34c12.56 0 22.743 10.183 22.743 22.743v57.513c0 12.56-10.183 22.743-22.743 22.743h-158.973v28.429zM479.823 831.732h-212.82v42.981h212.82v-42.981z" />
<glyph unicode="&#xe903;" glyph-name="user" horiz-adv-x="828" d="M806.126-64h-784.34c-12.049 0-21.786 9.761-21.786 21.786v39.151c0 63.227 34.488 121.333 90.025 151.616l144.906 90.896c16.557 9.084 26.515 25.187 26.515 41.722v59.681c-17.494 18.018-62.354 69.217-80.372 137.042-18.041 14.816-28.563 36.733-28.563 60.22v75.276c0 17.625 7.67 35.362 21.786 50.765v99.761c0.153 3.138 13.312 196.085 239.66 196.085s239.507-192.947 239.617-194.887l0.043-100.961c14.096-15.383 21.786-33.138 21.786-50.765v-75.276c0-23.487-10.524-45.403-28.563-60.22-18.018-67.823-62.877-119.025-80.372-137.042v-59.676c0-16.537 9.957-32.637 25.361-41.048l147.217-92.247c54.38-29.609 88.869-87.715 88.869-150.942v-39.151c-0.005-12.026-9.743-21.786-21.791-21.786v0z" />
<glyph unicode="&#xe904;" glyph-name="phone" horiz-adv-x="1020" d="M857.113 320.312c-35.676 37.174-82.072 37.174-119.246 0l-83.566-83.566c-7.74-7.725-13.985-9.208-23.204-4.751-16.947 10.702-37.174 18.442-54.121 29.434-80.592 51.158-148.695 116.287-209.057 190.34-29.449 37.174-55.615 75.831-74.347 120.729-2.978 9.219-2.978 13.985 4.747 21.709 29.449 26.471 55.615 54.132 83.566 82.087 38.672 38.653 38.672 83.566 0 122.223l-66.608 66.623c-23.204 23.189-44.913 46.393-68.102 68.102-35.69 35.679-82.087 35.679-119.26 0l-83.566-83.57c-26.46-26.471-40.136-57.4-43.419-92.785-4.747-57.404 9.219-113.004 29.449-167.136 41.921-113.004 105.276-210.555 181.106-301.85 103.793-124.008 227.499-221.559 371.736-291.144 65.125-30.928 131.747-55.615 202.827-60.363 51.143-2.978 94.562 10.702 129.948 49.66 23.204 27.955 51.158 51.143 75.842 77.325 37.174 38.653 37.174 85.050 0 122.223l-134.725 134.71z" />
<glyph unicode="&#xe905;" glyph-name="service" d="M445.202-64h133.552l20.193 121.029c48.435 10.975 91.192 29.33 129.433 54.070l-1.557-0.944 99.969-71.413 94.466 94.466-71.413 99.969c23.796 36.683 42.151 79.44 52.613 125.205l0.514 2.671 121.029 20.193v133.552l-121.029 20.15c-10.975 48.435-29.33 91.192-54.070 129.433l0.944-1.557 71.413 100.012-94.466 94.422-99.969-71.413c-36.684 23.792-79.44 42.146-125.202 52.612l-2.673 0.514-20.193 121.029h-133.552l-20.15-121.029c-48.435-10.98-91.191-29.334-129.434-54.070l1.558 0.944-100.012 71.413-94.422-94.422 71.413-99.969c-23.801-36.696-42.156-79.468-52.613-125.249l-0.513-2.67-121.029-20.15v-133.552l121.029-20.193c10.976-48.435 29.331-91.191 54.070-129.433l-0.944 1.557-71.413-99.969 94.422-94.466 99.969 71.413c36.683-23.796 79.44-42.151 125.205-52.613l2.671-0.514zM311.65 448.022c0 110.638 89.69 200.328 200.328 200.328s200.328-89.69 200.328-200.328c0-110.638-89.69-200.328-200.328-200.328v0c-110.628 0.025-200.303 89.7-200.328 200.326v0.002z" />
<glyph unicode="&#xe906;" glyph-name="edit" horiz-adv-x="972" d="M915.231 49.669h-857.416c-31.357 0-56.834-25.478-56.834-56.834 0-30.377 25.478-56.834 56.834-56.834h858.396c31.357 0 56.834 25.478 56.834 56.834-0.98 30.377-26.457 56.834-57.814 56.834zM56.834 168.237l151.885 0.98c15.678 0 29.397 5.879 40.176 16.658l525.229 524.249c22.538 21.558 22.538 56.834 0 80.352l-150.905 152.865c-21.558 21.558-56.834 22.538-81.332 0l-103.87-105.83-421.359-420.379c-9.799-11.759-15.678-24.498-15.678-39.196l-0.98-152.865c0-15.678 5.879-30.377 16.658-41.156s24.498-15.678 40.176-15.678zM558.545 797.336l24.498 24.498 71.533-71.533-24.498-24.498-71.533 71.533zM114.649 282.886l0.98 70.553 362.565 362.565 71.533-71.533-363.544-360.605-71.533-0.98z" />
<glyph unicode="&#xe907;" glyph-name="calendar" d="M940 864h-140v64c0 16-16 32-32 32s-32-16-32-32v-64h-192v64c0 16-16 32-32 32s-32-16-32-32v-64h-192v64c0 16-16 32-32 32s-32-16-32-32v-64h-140c-44 0-84-40-84-84v-756c0-48 40-84 84-84h852c48 0 84 40 84 84v756c4 44-36 84-80 84v0zM960 20c0-12-8-20-20-20h-856c-12 0-20 8-20 20v760c0 12 8 20 20 20h140v-64c0-16 16-32 32-32s32 16 32 32v64h192v-64c0-16 16-32 32-32s32 16 32 32v64h192v-64c0-16 16-32 32-32s32 16 32 32v64h140c12 0 20-8 20-20v-760zM224 576h128v-96h-128v96zM224 416h128v-96h-128v96zM224 256h128v-96h-128v96zM448 256h128v-96h-128v96zM448 416h128v-96h-128v96zM448 576h128v-96h-128v96zM672 256h128v-96h-128v96zM672 416h128v-96h-128v96zM672 576h128v-96h-128v96z" />
<glyph unicode="&#xe908;" glyph-name="muzik" d="M662.592 288.448c-56.896 29.12-94.144 42.496-153.728 65.344-4.416 1.664-9.728 5.056-11.52 8.96-4.928 10.752-8.256 22.208-11.776 33.344-2.112 7.36-4.096 14.080-11.968 17.6-2.176 0.896-4.096 5.056-4.096 7.68 0.512 26.176-5.568 53.632 13.824 76.416 0.576 0.768 0.832 1.792 1.216 2.624 10.496 22.848 12.288 49.024 26.944 70.4 0.384 0.512 0.512 1.152 0.512 1.792 1.728 16.32 3.456 32.512 4.864 48.768 0.128 1.984-1.6 5.568-3.328 6.208-8.064 2.816-7.616 9.344-7.616 15.744 0 31.744 0 36.352 0 68.16 0 18.496-5.44 34.816-19.392 47.424-15.936 14.336-32.256 28.096-48.64 41.984-7.808 6.592-8.576 11.776-1.152 19.072 3.264 3.2 7.424 5.568 11.264 8.32-0.896 1.216-1.664 2.432-2.496 3.712-4.992 0-9.92 0.64-14.72-0.064-18.048-2.944-36.224-5.44-53.952-9.6-33.856-8-66.752-18.624-94.208-41.28-18.752-15.488-33.792-33.536-35.712-59.136-0.96-13.376-0.768-26.816-0.96-40.192-0.064-21.824 0.256-16.512-0.192-38.272-0.192-3.584-2.112-9.408-4.608-10.176-8.832-2.88-9.088-8.576-7.872-15.872 0.896-5.12 0.192-10.368 1.344-15.296 3.008-13.632 6.336-27.328 10.24-40.768 2.88-9.984 8.512-19.456 10.176-29.568 3.072-20.288 10.688-38.016 24.384-53.312 2.24-2.56 3.968-6.784 3.648-10.176-1.024-15.616-2.624-31.296-4.736-46.848-0.512-3.008-3.648-7.488-6.208-8.064-10.432-2.176-12.032-10.112-14.528-18.304-3.2-10.688-6.72-21.312-10.88-31.616-1.28-3.264-4.48-6.656-7.744-8-18.432-8.064-110.912-58.112-130.432-68.608-11.52-6.144-22.208-12.928-31.168-21.376l-27.2-180.736c135.552-21.12 158.016-41.408 295.68-53.248l-50.688 70.016 78.656 215.168-24.32 52.224h48.704l-24.384-52.224 78.656-215.168-49.408-68.224c100.544 10.752 237.952 34.048 316.096 51.52l-27.136 182.208c-8.256 8.384-18.112 15.552-29.44 21.44v0zM628.288 557.312c0.256 0.32 2.88 20.48-3.008 27.264l-53.44 15.68 51.712 36.224c3.584 2.304 5.504 6.336 4.928 10.56-0.448 3.328-6.464-0.192-6.592 2.944-7.744 0.512-8.96 2.56-15.744 5.952-0.064-0.768-0.192-1.472-0.192-2.24 0-2.944 0.128 0.064 0.32-2.944l-67.84-46.016c-3.712-2.368-5.632-6.72-4.864-11.072s4.032-7.808 8.256-8.896l81.344-22.656c1.728-1.664 3.392-3.2 5.12-4.8zM895.36 705.344v71.040c0 7.616-6.144 13.76-13.824 13.76h-16.704c-7.68 0-13.824-6.144-13.824-13.76v-26.752l-32.32 32.448c-4.48 4.48-11.84 4.48-16.32 0l-108.928-109.056c-5.824-5.76-1.664-15.68 6.464-15.68h14.784c6.4 0 11.52-5.12 11.52-11.456v-88.832c0-6.4 5.184-11.52 11.52-11.52h24.448c6.4 0 11.456 5.12 11.456 11.52v39.552c0 6.336 5.184 11.456 11.52 11.456h50.944c6.4 0 11.52-5.184 11.52-11.456v-39.552c0-6.336 5.12-11.456 11.52-11.456h24.448c6.336 0 11.456 5.184 11.456 11.456v88.832c0 6.336 5.184 11.52 11.584 11.52h14.784c8.128 0 12.224 9.856 6.464 15.616l-32.512 32.32zM950.016 843.072h-283.584c-33.344 0-60.288-27.008-60.288-60.288v-152.576c4.48 10.24 12.16 10.944 21.696 16.768v135.808c0 21.312 17.344 38.656 38.656 38.656h283.584c21.248 0 38.592-17.344 38.592-38.656v-238.976c0-21.312-17.344-38.592-38.592-38.592h-283.584c-21.312 0-38.656 17.28-38.656 38.592v18.88c-9.536 5.824-17.216 14.336-21.696 24.512v-43.392c0-33.216 27.008-60.288 60.288-60.288h283.584c33.216 0 60.224 27.072 60.224 60.288v238.976c0 33.28-27.072 60.288-60.224 60.288z" />
<glyph unicode="&#xe909;" glyph-name="view_list" horiz-adv-x="1035" d="M295.771 722.26h680.821c0 0 0.004 0 0.007 0 15.597 0 30.261 6.075 41.291 17.108 11.033 11.033 17.112 25.704 17.112 41.302-0.004 32.202-26.207 58.406-58.41 58.406h-680.821c-32.206 0-58.41-26.204-58.41-58.41 0-32.199 26.204-58.402 58.41-58.406zM976.593 504.611h-680.821c-32.206 0-58.41-26.204-58.41-58.41s26.204-58.406 58.41-58.41h680.821c0 0 0.004 0 0.007 0 15.597 0 30.261 6.075 41.291 17.108 11.033 11.033 17.112 25.704 17.112 41.302-0.004 32.206-26.207 58.406-58.41 58.41zM976.593 173.737h-680.821c-32.206 0-58.41-26.2-58.41-58.406 0-32.202 26.2-58.406 58.41-58.41h680.821c15.597 0 30.267 6.075 41.298 17.112 11.033 11.030 17.112 25.7 17.112 41.298-0.004 32.206-26.207 58.406-58.41 58.406zM59.505 839.079h-1.097c-32.206 0-58.41-26.204-58.41-58.41s26.204-58.406 58.41-58.41h1.097c0 0 0.004 0 0.007 0 15.597 0 30.261 6.075 41.291 17.108 11.033 11.033 17.112 25.704 17.112 41.302-0.004 32.206-26.207 58.406-58.41 58.41zM59.505 504.611h-1.097c-32.206 0-58.41-26.204-58.41-58.41s26.204-58.406 58.41-58.41h1.097c0 0 0.004 0 0.007 0 15.597 0 30.261 6.075 41.291 17.108 11.033 11.033 17.112 25.704 17.112 41.302-0.004 32.206-26.207 58.406-58.41 58.41zM59.505 173.737h-1.097c-32.206 0-58.41-26.2-58.41-58.406 0-32.202 26.2-58.406 58.41-58.41h1.097c15.597 0 30.267 6.075 41.298 17.112 11.033 11.030 17.112 25.7 17.112 41.298-0.004 32.206-26.207 58.406-58.41 58.406z" />
<glyph unicode="&#xe90a;" glyph-name="view_table" d="M59.871 751.232h904.261c0.005 0 0.005 0 0.006 0 15.986 0 31.016 6.226 42.322 17.535s17.539 26.347 17.539 42.332c-0.005 33.008-26.863 59.866-59.869 59.866h-904.261c-33.012 0-59.869-26.858-59.869-59.869 0-33.003 26.858-59.86 59.869-59.866zM964.131 388.064h-904.261c-33.012 0-59.869-26.854-59.869-59.866 0-33.008 26.854-59.866 59.869-59.869h904.261c15.986 0 31.025 6.226 42.329 17.539 11.307 11.307 17.539 26.342 17.539 42.329-0.005 33.012-26.863 59.866-59.869 59.866zM964.131 144.771h-904.261c-33.012 0-59.869-26.854-59.869-59.866 0-33.008 26.854-59.866 59.869-59.869h904.261c15.986 0 31.025 6.226 42.329 17.539 11.307 11.307 17.539 26.342 17.539 42.329-0.005 33.012-26.863 59.866-59.869 59.866zM964.131 627.676h-904.261c-33.012 0-59.869-26.858-59.869-59.869s26.858-59.866 59.869-59.869h904.261c0.005 0 0.005 0 0.006 0 15.986 0 31.016 6.226 42.322 17.535s17.539 26.347 17.539 42.332c-0.005 33.012-26.863 59.866-59.869 59.869z" />
<glyph unicode="&#xe90b;" glyph-name="view_cards" horiz-adv-x="1021" d="M0 960h432.074v-432.074h-432.074v432.074zM588.76 960h432.074v-432.074h-432.074v432.074zM0 368.074h432.074v-432.074h-432.074v432.074zM588.76 368.074h432.074v-432.074h-432.074v432.074z" />
<glyph unicode="&#xe90c;" glyph-name="favorites-full" horiz-adv-x="1028" d="M952.438 817.382v0c-50.064 48.847-119.573 73.62-206.588 73.62-24.645 0-50.072-4.306-75.551-12.807-25.045-8.331-48.771-19.803-70.513-34.074-20.415-13.412-38.669-26.5-54.285-38.933-10.731-8.587-21.283-17.743-31.504-27.334-10.153 9.531-20.713 18.687-31.547 27.351-15.071 12.033-33.308 25.121-54.217 38.916-21.666 14.237-45.409 25.709-70.556 34.065-25.487 8.51-50.898 12.816-75.526 12.816-87.023 0-156.523-24.773-206.588-73.62-50.141-48.94-75.568-117.242-75.568-202.987 0-26.441 4.672-53.979 13.897-81.883 9.106-27.436 19.624-51.162 31.248-70.513 11.505-19.164 24.636-37.997 39.027-55.961 14.569-18.22 24.993-30.5 31.862-37.546 6.697-6.901 11.982-11.922 16.144-15.343l345.376-333.198c9.795-9.778 22.39-14.952 36.431-14.952 14.016 0 26.61 5.157 36.244 14.731l345.776 333.054c87.592 87.592 132.006 175.611 132.006 261.613 0 85.712-25.428 154.013-75.568 202.987z" />
<glyph unicode="&#xe90d;" glyph-name="select-galka" d="M255.552 607.744l-42.944-46.784 273.984-315.84 477.184 572.416-37.504 40.128-439.616-361.664-231.104 111.744z" />
<glyph unicode="&#xe90e;" glyph-name="print2" d="M278.976 116.352l-7.168-75.2c-3.84-40.384 25.92-73.152 66.56-73.152h347.2c40.704 0 71.232 32.896 68.416 73.344l-5.376 75.008h-469.632zM993.984 111.424v414.4c0 40.576-32.896 73.536-73.6 73.536h-127.552v-196.032h-561.472v196.032h-127.808c-40.576 0-73.536-32.96-73.536-73.536v-414.4c0-40.64 32.96-73.472 73.536-73.472h127.808v127.104h561.472v-127.104h127.552c40.768 0 73.6 32.832 73.6 73.472v0zM894.336 461.568c-19.072 0-34.368 15.488-34.368 34.496 0 19.072 15.296 34.432 34.368 34.432 19.008 0 34.368-15.36 34.368-34.432 0-19.008-15.36-34.496-34.368-34.496v0zM742.080 786.304v16.704l-129.536 124.992h-259.264c-38.528 0-69.76-31.296-69.76-69.696v-407.296h458.624v333.952c-0.064 0.384-0.064 0.768-0.064 1.344v0zM673.536 524.608c0-0.64-0.448-1.088-1.216-1.088h-319.040c-0.704 0-1.152 0.448-1.152 1.088v333.696c0 0.576 0.512 1.088 1.152 1.088h201.984v-41.92c0-52.544 45.056-71.616 75.392-71.616h42.944v-221.248z" />
<glyph unicode="&#xe90f;" glyph-name="select" d="M698.304 165.632h-555.264v554.944h555.264v-29.12l111.104 91.52v48.64h-777.408v-777.088h777.408v481.472l-111.104-133.184v-237.184zM287.552 607.744l-42.944-46.784 273.984-315.84 477.184 572.416-37.568 40.128-439.552-361.664-231.104 111.744z" />
<glyph unicode="&#xe910;" glyph-name="milo" d="M512 928l-496.32-370.688v-589.312h992.576v589.312l-496.256 370.688zM374.656 663.68c14.592 26.56 34.624 46.592 60.032 59.776 25.6 13.504 54.656 20.352 87.296 20.352 27.776 0 52.288-5.44 74.048-16.128 21.12-11.008 37.824-26.112 49.28-46.272 11.456-19.648 17.152-41.344 17.152-64.96 0-28.096-8.64-53.248-26.048-76.224-21.76-28.352-49.472-42.624-83.328-42.624-9.088 0-15.872 1.28-20.672 4.48-4.608 3.2-7.808 8.064-9.088 14.208-12.992-12.544-28.16-18.944-44.928-18.944-18.432 0-33.344 6.4-45.504 19.008-12.032 12.608-18.176 29.376-18.176 50.112 0 26.176 7.488 49.408 22.016 70.72 17.408 26.24 40 39.104 67.52 39.104 19.776 0 34.176-7.424 43.328-22.336l4.032 18.112h43.712l-24.832-118.272c-1.536-7.36-2.24-12.224-2.24-14.464 0-2.944 0.704-4.864 1.856-6.208 1.344-1.28 2.496-1.92 4.48-1.92 5.184 0 11.904 2.88 20.352 9.344 11.392 8.448 20.352 19.712 27.2 33.6 7.104 14.208 10.624 28.8 10.624 43.968 0 26.816-9.664 49.728-29.44 67.904-19.648 18.112-47.168 27.456-81.984 27.456-29.696 0-55.232-6.208-75.904-18.496-20.736-11.904-36.16-29.376-46.848-51.328-10.624-21.952-15.808-44.992-15.808-68.864 0-23.232 6.144-44.288 17.664-63.296 11.712-19.072 28.16-32.96 49.152-41.664 21.312-8.768 45.568-13.248 73.024-13.248 26.112 0 48.832 3.648 67.456 10.944 19.2 7.424 34.24 18.496 46.016 33.024h35.2c-10.944-22.272-28.096-39.808-50.752-52.736-26.176-14.272-57.92-21.632-95.296-21.632-36.544 0-67.904 6.208-94.080 18.432-26.432 12.288-46.144 30.336-59.072 54.272-12.992 23.872-19.392 50.176-19.392 78.272 0 30.912 7.424 59.648 21.952 86.528v0zM50.624 545.728l366.464-245.568-366.464-283.456v529.024zM78.4-2.176l433.6 335.296 433.536-335.296h-867.136zM973.376 16.768l-366.528 283.392 366.528 245.568v-528.96zM530.048 636.48c5.824-6.464 8.704-16.064 8.704-28.416 0-11.264-2.176-23.296-6.4-36.224-4.288-12.864-9.408-22.528-15.232-29.312-3.84-4.48-8.064-8.064-12.16-10.368-5.504-2.944-11.456-4.48-17.856-4.48-8.384 0-15.168 3.2-21.056 10.048-5.76 6.4-8.384 16.768-8.384 30.656 0 10.368 1.92 22.656 6.208 36.224 3.84 13.568 9.984 23.552 18.112 30.976 7.936 7.424 16.768 10.944 26.048 10.944 8.768 0 16.192-3.264 22.016-10.048v0z" />
<glyph unicode="&#xe911;" glyph-name="vk2" d="M811.456 382.752c28.112-27.44 57.856-53.248 83.088-83.6 11.152-13.392 21.696-27.216 29.728-42.752 11.424-22.24 1.088-46.608-18.784-47.952l-123.52 0.048c-31.888-2.624-57.296 10.24-78.736 32.048-17.008 17.376-32.944 35.952-49.408 53.92-6.688 7.376-13.76 14.304-22.192 19.792-16.88 10.944-31.504 7.616-41.152-9.952-9.808-17.888-12.112-37.76-13.008-57.712-1.344-29.088-10.128-36.704-39.344-38.096-62.48-2.896-121.728 6.592-176.784 38.064-48.608 27.744-86.224 66.976-118.976 111.344-63.808 86.48-112.672 181.456-156.592 279.152-9.92 22.016-2.672 33.808 21.552 34.24 40.352 0.784 80.704 0.688 121.008 0.048 16.384-0.272 27.264-9.648 33.536-25.136 21.824-53.6 48.496-104.608 81.984-151.92 8.96-12.608 18.064-25.136 30.976-34.032 14.32-9.856 25.248-6.656 32 9.376 4.288 10.192 6.176 21.008 7.072 31.888 3.2 37.248 3.6 74.528-1.936 111.664-3.44 23.216-16.56 38.224-39.696 42.608-11.792 2.256-10.032 6.576-4.336 13.344 9.984 11.632 19.36 18.864 37.952 18.864h139.6c22.016-4.304 26.96-14.208 29.952-36.336l0.096-155.136c-0.256-8.592 4.304-33.968 19.664-39.6 12.336-4.064 20.528 5.856 27.92 13.664 33.44 35.472 57.28 77.424 78.624 120.832 9.424 19.088 17.552 38.912 25.504 58.752 5.84 14.672 14.944 21.904 31.52 21.648l134.384-0.16c3.952 0 8.032 0 11.952-0.64 22.608-3.92 28.848-13.664 21.808-35.808-10.992-34.672-32.48-63.6-53.424-92.592-22.464-31.008-46.352-60.976-68.656-92.176-20.352-28.576-18.72-42.928 6.624-67.696v0z" />
<glyph unicode="&#xe912;" glyph-name="vk" d="M263.168 763.888h290.64c95.632 0 177.040-46.848 176.96-141.584-0.080-79.088-28.72-109.872-87.552-144.672 5.008-4.144 38.752-14.208 50.064-19.792 18.128-8.928 28.784-17.968 40.72-30.096 33.392-33.936 39.616-64.976 39.616-118.224 0-123.52-119.504-185.648-234.56-185.648h-277.12l1.232 640.016zM421.104 595.744l-0.016-83.104c74.864 0 145.2-9.856 145.2 71.312 0 75.136-79.584 62.752-145.264 62.752l0.080-50.96zM421.056 241.68c82.016 0 183.36-13.488 185.152 79.632 1.872 97.152-104.112 79.632-185.104 79.632l-0.048-159.264z" />
<glyph unicode="&#xe913;" glyph-name="close" d="M515.968 563.008l341.062 341.062 111.040-111.040-341.062-348.992 348.992-348.992-111.040-111.040-348.992 348.992-333.126-333.126-111.040 111.040 333.126 333.126-356.922 356.922 111.040 111.040 356.922-348.992z" />
<glyph unicode="&#xe914;" glyph-name="sort-low" horiz-adv-x="1203" d="M0 960h1202.961v-162.692h-1202.961v162.692zM0 672.897h915.858v-162.692h-915.858v162.692zM0 385.794h628.755v-162.692h-628.755v162.692zM0 98.692h341.652v-162.692h-341.652v162.692z" />
<glyph unicode="&#xe915;" glyph-name="sort-hight" horiz-adv-x="1206" d="M0 98.692h1205.832v-162.692h-1205.832v162.692zM0 385.794h918.729v-162.692h-918.729v162.692zM0 672.897h631.626v-162.692h-631.626v162.692zM0 960h344.523v-162.692h-344.523v162.692z" />
<glyph unicode="&#xe916;" glyph-name="arrow-right" horiz-adv-x="543" d="M480.749 446.584l-480.159-480.159 31.295-31.295 510.524 510.524-0.871 0.871 0.9 0.885-510.524 512.015-31.354-31.281z" />
<glyph unicode="&#xe917;" glyph-name="arrow-left" horiz-adv-x="543" d="M62.252 447.956l480.159 480.173-31.295 31.295-510.524-510.539 0.871-0.871-0.9-0.885 510.524-512 31.354 31.266z" />
<glyph unicode="&#xe918;" glyph-name="mappoint" horiz-adv-x="630" d="M315.077 960c-174.001 0-315.077-141.076-315.077-315.077 0-220.633 315.077-693.248 315.077-693.248s315.077 472.615 315.077 693.248c0 174.001-141.076 315.077-315.077 315.077v0zM344.3 394.752c-9.531-0.906-18.905-1.812-29.223-1.812s-19.692 0.906-29.223 1.851c-125.558 14.454-222.759 120.911-222.759 250.132 0 139.225 112.758 251.983 251.983 251.983 139.067 0 251.983-112.758 251.983-251.983 0-129.221-97.359-235.678-222.759-250.171v0zM484.628 646.302l-64.788 64.748v97.122h-43.166v-53.996l-64.748 64.788-172.662-172.662v-10.831h43.166v-107.914h107.914v64.788h43.166v-64.788h107.953v107.914h43.166v10.831z" />
<glyph unicode="&#xe919;" glyph-name="map" horiz-adv-x="754" d="M376.964 960c-207.85 0-376.964-169.114-376.964-376.964 0-54.245 11.108-106.027 32.958-153.919 94.251-206.212 274.984-423.991 328.142-485.808 3.943-4.65 9.772-7.31 15.863-7.31 6.144 0 11.934 2.659 15.916 7.31 53.118 61.816 233.852 279.543 328.103 485.808 21.902 47.892 33.011 99.674 33.011 153.919-0.052 207.85-169.167 376.964-377.029 376.964v0zM376.964 387.212c-107.966 0-195.824 87.858-195.824 195.824s87.858 195.824 195.824 195.824c107.979 0 195.837-87.858 195.837-195.824s-87.858-195.824-195.837-195.824v0z" />
<glyph unicode="&#xe91a;" glyph-name="send" horiz-adv-x="1019" d="M-0.004 11.369l1019.008 436.631-1019.008 436.631v-339.771l727.818-96.86-727.818-97.164v-339.467z" />
<glyph unicode="&#xe91b;" glyph-name="favorites" horiz-adv-x="1028" d="M952.438 817.382v0c-50.064 48.847-119.573 73.62-206.588 73.62-24.645 0-50.072-4.306-75.551-12.807-25.045-8.331-48.771-19.803-70.513-34.074-20.415-13.412-38.669-26.5-54.285-38.933-10.731-8.587-21.283-17.743-31.504-27.334-10.153 9.531-20.713 18.687-31.547 27.351-15.071 12.033-33.308 25.121-54.217 38.916-21.666 14.237-45.409 25.709-70.556 34.065-25.487 8.51-50.898 12.816-75.526 12.816-87.023 0-156.523-24.773-206.588-73.62-50.141-48.94-75.568-117.242-75.568-202.987 0-26.441 4.672-53.979 13.897-81.883 9.106-27.436 19.624-51.162 31.248-70.513 11.505-19.164 24.636-37.997 39.027-55.961 14.569-18.22 24.993-30.5 31.862-37.546 6.697-6.901 11.982-11.922 16.144-15.343l345.376-333.198c9.795-9.778 22.39-14.952 36.431-14.952 14.016 0 26.61 5.157 36.244 14.731l345.776 333.054c87.592 87.592 132.006 175.611 132.006 261.613 0 85.712-25.428 154.013-75.568 202.987zM182.977 766.008c16.364 7.812 32.423 13.114 47.749 15.778 15.888 2.774 33.189 4.178 51.417 4.178 16.807 0 35.47-4.298 55.459-12.765 20.85-8.884 40.235-20.118 57.621-33.384 17.956-13.675 33.682-26.755 46.703-38.831 12.876-12.016 23.632-23.036 31.716-32.474 9.88-12.059 23.828-18.441 40.32-18.441 16.51 0 30.466 6.374 40.116 18.152 8.34 9.744 19.097 20.755 31.929 32.729 12.765 11.855 28.491 24.934 46.703 38.865 17.437 13.284 36.831 24.509 57.621 33.367 20.024 8.485 38.694 12.782 55.493 12.782 18.203 0 35.512-1.404 51.443-4.178 15.318-2.655 31.376-7.957 47.707-15.76 15.684-7.515 29.155-17.335 40.014-29.164 10.748-11.727 19.811-28.117 26.951-48.736 7.293-21.028 10.995-45.834 10.995-73.73 0-57.119-33.367-119.463-99.183-185.312l-309.77-298.554-310.213 299.006c-65.51 65.51-98.724 127.7-98.724 184.862 0 27.913 3.701 52.719 10.995 73.739 7.149 20.611 16.211 37.001 26.943 48.711 10.867 11.837 24.338 21.658 39.996 29.164z" />
<glyph unicode="&#xe91c;" glyph-name="search" horiz-adv-x="1023" d="M995.206 85.351l-221.632 221.632c-1.177 1.172-2.547 1.992-3.78 3.082 43.599 66.152 69.051 145.357 69.051 230.507 0 231.643-187.779 419.427-419.422 419.427s-419.422-187.784-419.422-419.427c0-231.638 187.779-419.422 419.422-419.422 85.155 0 164.339 25.452 230.487 69.056 1.095-1.233 1.91-2.608 3.108-3.78l221.632-221.632c33.293-33.293 87.259-33.293 120.557 0 33.293 33.293 33.293 87.264 0 120.557v0zM419.422 266.543c-151.343 0-274.030 122.686-274.030 274.030 0 151.348 122.686 274.035 274.030 274.035s274.030-122.686 274.030-274.035c0-151.343-122.686-274.030-274.030-274.030v0z" />
<glyph unicode="&#xe91d;" glyph-name="camera" d="M942.096 695.466h-145.476l-68.266 170.668h-432.708l-68.266-170.668h-22.58v85.332h-102.4v-85.332h-20.496c-45.174 0-81.904-36.726-81.904-81.904v-501.214c0-45.482 37-82.482 82.484-82.482h859.034c45.482 0 82.482 37 82.482 82.482v501.214c0 45.176-36.726 81.904-81.904 81.904zM136.532 746.668h34.134v-51.2h-34.134v51.2zM989.866 112.35c0-26.674-21.692-48.35-48.35-48.35h-859.034c-26.658 0-48.35 21.692-48.35 48.35v501.214c0 26.334 21.436 47.77 47.77 47.77h168.584l68.266 170.668h386.492l68.266-170.668h168.586c26.334 0 47.77-21.436 47.77-47.77v-501.214zM512 712.532c-169.388 0-307.2-137.812-307.2-307.2s137.812-307.2 307.2-307.2 307.2 137.812 307.2 307.2-137.812 307.2-307.2 307.2zM512 132.268c-150.562 0-273.068 122.504-273.068 273.068s122.504 273.068 273.068 273.068 273.068-122.504 273.068-273.068-122.504-273.068-273.068-273.068zM512 610.132c-112.93 0-204.8-91.87-204.8-204.8s91.87-204.8 204.8-204.8 204.8 91.87 204.8 204.8-91.87 204.8-204.8 204.8zM512 234.668c-94.106 0-170.668 76.562-170.668 170.668s76.562 170.668 170.668 170.668 170.668-76.562 170.668-170.668-76.562-170.668-170.668-170.668zM887.466 627.2c-37.65 0-68.266-30.618-68.266-68.266s30.618-68.266 68.268-68.266 68.268 30.618 68.268 68.266-30.618 68.266-68.268 68.266zM887.466 524.8c-18.826 0-34.134 15.31-34.134 34.132s15.308 34.132 34.134 34.132 34.134-15.31 34.134-34.132-15.308-34.132-34.134-34.132z" />
<glyph unicode="&#xe91e;" glyph-name="on-map" horiz-adv-x="999" d="M843.167 275.501l153.889-316.125c6.259-12.854-0.323-23.376-14.621-23.376h-965.446c-14.298 0-20.88 10.522-14.621 23.376l153.889 316.125c2.447 5.033 9.029 9.145 14.617 9.145h131.955c4.062 0 9.559-2.544 12.218-5.619 8.95-10.346 18.074-20.452 27.164-30.457 8.637-9.498 17.317-19.117 25.93-28.963h-156.592c-5.594 0-12.176-4.116-14.623-9.143l-101.941-209.424h809.451l-101.936 209.424c-2.447 5.033-9.029 9.143-14.623 9.143h-156.947c8.614 9.846 17.295 19.465 25.932 28.963 9.12 10.035 18.288 20.118 27.261 30.47 2.659 3.069 8.144 5.606 12.199 5.606h132.23c5.594 0 12.17-4.112 14.617-9.145v0zM813.17 646.313c0-239.33-199.236-284.215-292.94-514.209-7.614-18.688-33.923-18.594-41.538 0.094-84.531 207.368-254.856 264.228-287.443 448.962-32.081 181.868 93.836 360.009 277.682 377.394 186.982 17.671 344.24-128.918 344.24-312.241v0zM665.142 646.313c0 91.488-74.17 165.651-165.657 165.651-91.499 0-165.66-74.163-165.66-165.651 0-91.496 74.162-165.657 165.66-165.657 91.488 0 165.657 74.16 165.657 165.657v0z" />
<glyph unicode="&#xe91f;" glyph-name="sucess" d="M0 537.044v-524.052h237.808v524.052h-237.808zM118.904 91.828c-18.44 0-33.392 14.95-33.392 33.392s14.95 33.392 33.392 33.392c18.44 0 33.392-14.95 33.392-33.392s-14.95-33.392-33.392-33.392zM1024 529.354c0 41.65-33.764 75.414-75.414 75.414h-281.414c0 0 62.118 72.842 62.118 205.544 0 46.524-37.714 84.238-84.238 84.238s-84.238-37.714-84.238-84.238c0-86.792-71.854-123.708-124.014-193.712-43.654-58.59-46.684-126.498-111.438-126.498-7.91 0-14.778 0-20.772 0v-447.408c32.096-14.386 55.694-41.24 88.214-41.24 44.41 0 489.096 0 489.096 0 41.65 0 75.414 33.764 75.414 75.414s-33.764 75.414-75.414 75.414h22.23c41.65 0 75.414 33.764 75.414 75.414s-33.764 75.414-75.414 75.414h22.23c41.65 0 75.414 33.762 75.414 75.414s-33.764 75.414-75.414 75.414h22.23c41.646 0 75.41 33.766 75.41 75.416z" />
<glyph unicode="&#xe920;" glyph-name="letter" horiz-adv-x="1425" d="M727.040 956.082c-149.059-4.497-515.784-218.424-573.262-252.527l-31.699-129.647 159.61-114.243-30.631 107.119 752.239 215.396 106.719-372.736 230.534 163.929-39.713 129.736c-55.474 32.946-424.292 248.431-573.796 252.928v0zM1344.156-52.87v576.289l-343.752-244.469 336.896-331.821h6.812zM119.274 518.834v-571.704h5.832l332.043 334.269-337.875 241.931v-4.497zM1039.315 180.513l-38.422 37.888-21.459 21.014-52.402 51.645c-6.367 6.189-12.956 12.021-19.768 17.675-50.755 41.405-113.709 64.156-180.135 64.156-66.56 0-129.38-22.617-180.135-64.067-7.613-6.233-15.048-12.956-22.172-20.079l-1.38-1.336-21.237-21.459-315.659-317.752h1088.69l-235.876 232.314z" />
<glyph unicode="&#xe921;" glyph-name="time" d="M726.976 662.976c-56.256 61.504-138.24 92.288-214.976 92.288v-307.264l-214.976-214.976c117.696-117.76 312.256-117.76 435.2 0 117.76 117.696 117.76 312.256-5.248 429.952v0zM512 960c-281.472 0-512-230.528-512-512s230.528-512 512-512c281.472 0 512 230.528 512 512s-230.528 512-512 512v0zM512 38.528c-225.28 0-409.472 184.192-409.472 409.472s184.192 409.472 409.472 409.472c225.28 0 409.472-184.192 409.472-409.472s-184.192-409.472-409.472-409.472v0z" />
<glyph unicode="&#xe922;" glyph-name="checkmark" d="M1014.592 731.744l-90.848 90.848c-12.576 12.576-32.832 12.576-45.408 0l-464.48-490.368-266.24 266.368c-12.704 12.704-33.312 12.704-46.016 0l-92.032-92.096c-12.704-12.672-12.704-33.28 0-46.016l378.656-387.456c7.328-7.36 17.28-9.888 26.848-8.64 9.888-1.472 20.192 1.024 27.776 8.64l571.744 613.28c12.544 12.544 12.544 32.896 0 45.44z" />
<glyph unicode="&#xe923;" glyph-name="print1" d="M254.245 126.683v-190.683h508.453v317.806h-508.453v-127.122zM317.806 190.245h381.367v-63.561h-381.367v63.561zM317.806 63.122h381.367v-63.561h-381.367v63.561zM762.697 769.317v190.683h-508.453v-317.806h508.453v127.122zM889.819 734.025h-63.561v-190.683h-635.575v190.683h-63.561c-63.561 0-127.122-63.561-127.122-127.122v-317.806c0-63.561 63.561-127.122 127.122-127.122h63.561v190.683h635.575v-190.683h63.561c63.561 0 127.122 63.561 127.122 127.122v317.806c0 63.561-63.561 127.122-127.122 127.122v0z" />
</font>
</defs>
</svg>
