<?xml version="1.0" encoding="iso-8859-1"?>
<!-- Generator: Adobe Illustrator 19.2.1, SVG Export Plug-In . SVG Version: 6.00 Build 0)  -->
<svg version="1.1" id="&#x421;&#x43B;&#x43E;&#x439;_1"
	 xmlns="http://www.w3.org/2000/svg" xmlns:xlink="http://www.w3.org/1999/xlink" x="0px" y="0px" viewBox="0 0 50 50"
	 style="enable-background:new 0 0 49 49.199;" xml:space="preserve">
<g>
	<path fill="#ffffff" d="M46.602,45.199v-0.801h0.796v-4h-4v-5.031c0.043-0.023,0.094-0.043,0.133-0.062c1.289-0.668,2.199-1.688,2.559-2.879
		c0.246-0.813,0.191-1.766-0.145-2.543c-0.172-0.395-0.156-0.817,0.032-1.078c0.273-0.375,0.515-0.828,0.718-1.344
		c0.36-0.914,0.465-1.699,0.325-2.406c-0.082-0.407-0.27-0.805-0.532-1.121c-0.148-0.18-0.215-0.457-0.164-0.692
		c0.141-0.648,0.051-1.347-0.246-1.914c-0.469-0.902-1.406-1.539-2.516-1.695c-0.874-0.125-1.75,0.117-2.23,0.621l-0.422,0.363
		c-0.738,0.395-1.293,1.164-1.453,2.043c-0.09,0.481-0.062,0.985,0.082,1.465c0.078,0.262,0.016,0.578-0.168,0.848
		c-0.836,1.238-1.008,2.968-0.422,4.3c0.09,0.2,0.199,0.391,0.328,0.563c0.184,0.25,0.25,0.582,0.176,0.887
		c-0.043,0.164-0.07,0.332-0.086,0.5c-0.062,0.714,0.082,1.41,0.203,1.968c0.121,0.59,0.309,1.477,0.969,2.047
		c0.348,0.297,0.785,0.457,1.262,0.485v4.675h-4v4h0.801v0.801h-7.403V0.801c0-0.012-0.004-0.028-0.004-0.039
		c0-0.039-0.007-0.078-0.019-0.117c-0.008-0.04-0.012-0.079-0.028-0.114c-0.003-0.011-0.003-0.027-0.007-0.039
		c-0.012-0.023-0.028-0.039-0.039-0.062c-0.02-0.035-0.04-0.071-0.063-0.106c-0.023-0.031-0.051-0.058-0.078-0.086
		c-0.027-0.027-0.055-0.051-0.086-0.074c-0.031-0.027-0.066-0.043-0.102-0.062C30.75,0.09,30.73,0.07,30.707,0.062
		c-0.012-0.007-0.023-0.007-0.035-0.011c-0.039-0.012-0.074-0.02-0.113-0.028c-0.043-0.007-0.082-0.015-0.125-0.019
		C30.422,0.004,30.41,0,30.398,0H3.199C3.188,0,3.176,0.004,3.164,0.004C3.125,0.008,3.086,0.016,3.043,0.023
		C3.004,0.031,2.969,0.039,2.93,0.051C2.918,0.055,2.906,0.055,2.895,0.062C2.871,0.07,2.852,0.09,2.828,0.102
		c-0.035,0.019-0.07,0.035-0.101,0.062C2.695,0.187,2.668,0.211,2.641,0.238C2.613,0.266,2.586,0.293,2.562,0.324
		C2.539,0.359,2.52,0.395,2.5,0.43C2.488,0.453,2.473,0.469,2.461,0.492C2.457,0.504,2.457,0.52,2.453,0.531
		C2.438,0.566,2.43,0.605,2.422,0.645C2.414,0.684,2.406,0.723,2.406,0.762c0,0.011-0.008,0.027-0.008,0.039v44.398H0v4h49v-4
		H46.602z M4.801,47.602H4V2.73l0.801,0.801V47.602z M15.602,46H8V28.398h7.602V46z M15.602,25.199H8V5.602h7.602V25.199z
		 M25.602,46H18V28.398h7.602V46z M25.602,27.602h-3.204c-0.441,0-0.796-0.36-0.796-0.801c0-0.442,0.355-0.801,0.796-0.801h3.204
		c0.441,0,0.796,0.359,0.796,0.801C26.398,27.242,26.043,27.602,25.602,27.602L25.602,27.602z M18,25.199V5.602h7.602v19.597H18z
		 M27.668,2.398H5.93L5.133,1.602h23.336L27.668,2.398z M29.602,45.199v2.403h-0.801V3.531l0.801-0.801V45.199z M38.602,47.602
		h-7.403v-0.801h7.403V47.602z M45.801,42.801h-6.403V42h6.403V42.801z M47.398,47.602h-0.796v-0.801h0.796V47.602z M47.398,47.602"
		/>
</g>
</svg>
