<?xml version="1.0" encoding="iso-8859-1"?>
<!-- Generator: Adobe Illustrator 19.2.1, SVG Export Plug-In . SVG Version: 6.00 Build 0)  -->
<svg version="1.1" id="&#x421;&#x43B;&#x43E;&#x439;_1"
	 xmlns="http://www.w3.org/2000/svg" xmlns:xlink="http://www.w3.org/1999/xlink" x="0px" y="0px" viewBox="0 0 409.602 409.602"
	 style="enable-background:new 0 0 409.602 409.602;" xml:space="preserve">
<g>
	<path fill="#ffffff" d="M0,166.398c0,23.829,16.352,43.676,38.398,49.403V384H12.801C5.75,384,0,389.727,0,396.801s5.75,12.801,12.801,12.801h384
		c7.097,0,12.801-5.727,12.801-12.801S403.898,384,396.801,384h-25.602V215.801c22.051-5.727,38.403-25.574,38.403-49.403v-12.796H0
		V166.398z M256,217.602c28.301,0,51.199-22.926,51.199-51.204c0,23.829,16.352,43.676,38.403,49.403V384h-192V217.602
		c28.296,0,51.199-22.926,51.199-51.204C204.801,194.676,227.75,217.602,256,217.602L256,217.602z M140.801,215.801V384H64V215.801
		c22.051-5.727,38.398-25.574,38.398-49.403C102.398,190.227,118.75,210.074,140.801,215.801L140.801,215.801z M358.398,38.398
		H51.199L0,140.801h409.602L358.398,38.398z M108.152,66.852l-25.601,51.199c-1.153,2.25-3.399,3.551-5.75,3.551
		c-0.953,0-1.926-0.2-2.852-0.676c-3.148-1.574-4.449-5.426-2.851-8.574l25.601-51.2c1.602-3.152,5.426-4.425,8.574-2.879
		C108.449,59.852,109.699,63.699,108.152,66.852L108.152,66.852z M159.352,66.852l-25.602,51.199
		c-1.148,2.25-3.398,3.551-5.75,3.551c-0.949,0-1.926-0.2-2.852-0.676c-3.148-1.574-4.449-5.426-2.847-8.574l25.597-51.2
		c1.602-3.152,5.45-4.425,8.575-2.879C159.652,59.852,160.898,63.699,159.352,66.852L159.352,66.852z M211.199,115.199
		c0,3.551-2.851,6.403-6.398,6.403c-3.528,0-6.403-2.852-6.403-6.403V64c0-3.551,2.875-6.398,6.403-6.398
		c3.551,0,6.398,2.847,6.398,6.398V115.199z M284.699,120.801c-1,0.551-2.051,0.801-3.097,0.801c-2.254,0-4.454-1.204-5.602-3.329
		l-28-51.199c-1.699-3.097-0.551-7,2.551-8.676c3.051-1.699,7-0.597,8.699,2.528l28,51.199
		C288.898,115.227,287.801,119.125,284.699,120.801L284.699,120.801z M335.652,120.926c-0.902,0.472-1.851,0.676-2.851,0.676
		c-2.352,0-4.602-1.301-5.699-3.551L301.5,66.848c-1.602-3.149-0.301-7,2.852-8.575c3.097-1.574,7-0.3,8.597,2.875l25.602,51.2
		C340.102,115.5,338.852,119.352,335.652,120.926L335.652,120.926z M108.801,309.152v-29.5c-3.75-2.254-6.403-6.152-6.403-10.851
		c0-7.074,5.754-12.801,12.801-12.801c7.102,0,12.801,5.727,12.801,12.801c0,4.699-2.625,8.597-6.398,10.851v29.5
		c3.773,2.25,6.398,6.149,6.398,10.848c0,7.074-5.699,12.801-12.801,12.801c-7.051,0-12.801-5.727-12.801-12.801
		C102.398,315.301,105.051,311.398,108.801,309.152L108.801,309.152z M51.199,12.801C51.199,5.727,56.949,0,64,0h281.602
		c7.097,0,12.796,5.727,12.796,12.801s-5.699,12.801-12.796,12.801H64C56.949,25.602,51.199,19.875,51.199,12.801L51.199,12.801z
		 M224.352,286.125l-9.051-9.051l36.199-36.199l9.051,9.051L224.352,286.125z M224.352,322.324l-9.051-9.051l72.398-72.398
		l9.051,9.051L224.352,322.324z M287.699,277.074l9.051,9.051l-36.199,36.199l-9.051-9.051L287.699,277.074z M287.699,277.074"/>
</g>
</svg>
