<?xml version="1.0" encoding="iso-8859-1"?>
<!-- Generator: Adobe Illustrator 19.2.1, SVG Export Plug-In . SVG Version: 6.00 Build 0)  -->
<svg version="1.1" id="Layer_1" xmlns="http://www.w3.org/2000/svg" xmlns:xlink="http://www.w3.org/1999/xlink" x="0px" y="0px"
	 viewBox="-49 141 512 512" style="enable-background:new -49 141 512 512;" xml:space="preserve">
<polygon fill="#ffffff" points="463,195.039 463,141 -49,141 -49,652.999 289.963,652.999 289.963,612.24 227.179,612.24 227.179,509.329
	186.819,509.329 186.819,612.24 -8.64,612.24 -8.64,442.742 265.524,442.742 265.524,402.384 56.699,402.384 26.023,402.384 
	-8.64,402.384 -8.64,180.96 186.819,180.96 186.819,329.405 227.179,329.405 227.179,180.96 422.64,180.96 422.64,402.384 
	372.092,402.384 372.092,442.742 422.64,442.742 422.64,612.24 367.177,612.24 367.177,652.999 463,652.999 463,229.122 "/>
</svg>
