<?xml version="1.0" encoding="iso-8859-1"?>
<!-- Generator: Adobe Illustrator 19.2.1, SVG Export Plug-In . SVG Version: 6.00 Build 0)  -->
<svg version="1.1" id="Capa_1" xmlns="http://www.w3.org/2000/svg" xmlns:xlink="http://www.w3.org/1999/xlink" x="0px" y="0px"
	 viewBox="-33 167.003 480 460.086" style="enable-background:new -33 167.003 480 460.086;" xml:space="preserve">
<g>
	<path fill="#ffffff" d="M441.608,247.44l-232-80c-1.69-0.583-3.526-0.583-5.216,0l-232,80c-3.226,1.112-5.391,4.148-5.392,7.56v364
		c0,4.418,3.582,8,8,8H5c4.418,0,8-3.582,8-8V361h388v258c0,4.418,3.582,8,8,8h30c4.418,0,8-3.582,8-8V255
		C446.999,251.588,444.834,248.552,441.608,247.44z M401,345H13v-16h388V345z M401,313H13v-16h388V313z"/>
	<path fill="#ffffff"  d="M349.642,498.612l-25.989-12.994l-23.53-47.06c-4.212-8.428-12.661-13.647-22.061-13.647c-0.038,0-0.078,0-0.117,0H136.066
		c-0.028,0-0.056,0-0.084,0c-9.443,0-17.909,5.249-22.104,13.705l-23.53,47.06L64.36,498.671c-3.492,1.745-5.667,5.254-5.677,9.164
		v101.723c0,9.667,7.865,17.531,17.532,17.531h29.063c9.667,0,17.532-7.864,17.532-17.531V590.76H291.19v18.798
		c0,9.667,7.865,17.531,17.532,17.531h29.063c9.667,0,17.531-7.864,17.531-17.531V507.852
		C355.34,503.914,353.165,500.374,349.642,498.612z M102.278,590.76v15.798H79.214V590.76H102.278z M114.623,483.038l17.621-35.235
		l0.006-0.011c0.707-1.429,2.191-2.35,3.793-2.35c0.004,0,0.009,0,0.013,0h141.898c0.004,0,0.009,0,0.013,0
		c1.593,0,3.077,0.921,3.789,2.36l17.621,35.235H114.623z M334.786,514.18v56.049H79.214V514.18l21.22-10.61h213.131L334.786,514.18
		z M334.786,590.76v15.798h-23.063V590.76H334.786z"/>
	<path fill="#ffffff" d="M127.075,512.102h-21.797c-9.667,0-17.532,7.864-17.532,17.531v14.532c0,9.667,7.865,17.531,17.532,17.531h21.797
		c9.667,0,17.532-7.864,17.532-17.531v-14.532C144.607,519.966,136.742,512.102,127.075,512.102z M124.075,532.633v8.532h-15.797
		v-8.532H124.075z"/>
	<path fill="#ffffff" d="M286.925,512.102c-9.667,0-17.532,7.864-17.532,17.531v14.532c0,9.667,7.865,17.531,17.532,17.531h21.798
		c9.667,0,17.531-7.864,17.531-17.531v-14.532c0-9.667-7.864-17.531-17.531-17.531H286.925z M305.723,532.633v8.532h-15.798v-8.532
		H305.723z"/>
	<path fill="#ffffff" d="M243.329,512.102H170.67c-9.667,0-17.532,7.864-17.532,17.531v14.532c0,9.667,7.865,17.531,17.532,17.531h72.659
		c9.667,0,17.532-7.864,17.532-17.531v-14.532C260.861,519.966,252.996,512.102,243.329,512.102z M240.329,532.633v8.532H173.67
		v-8.532H240.329z"/>
</g>
</svg>
