<?xml version="1.0" encoding="iso-8859-1"?>
<!-- Generator: Adobe Illustrator 19.2.1, SVG Export Plug-In . SVG Version: 6.00 Build 0)  -->
<svg version="1.1" id="Capa_1" xmlns="http://www.w3.org/2000/svg" xmlns:xlink="http://www.w3.org/1999/xlink" x="0px" y="0px"
	 viewBox="-49 141 512 512" style="enable-background:new -49 141 512 512;" xml:space="preserve">
<path fill="#ffffff" d="M47,621h-96v32H63h96h304v-32H175V333h32c8.832,0,16-7.168,16-16v-16h128v160h32v-27.552c9.52,5.552,16,15.76,16,27.552
	c0,17.648-14.352,32-32,32s-32-14.352-32-32h-32c0,35.296,28.704,64,64,64s64-28.704,64-64c0-29.728-20.48-54.576-48-61.728V253h48
	c8.832,0,16-7.168,16-16v-48c0-8.832-7.168-16-16-16H207h-48v-16c0-8.848-6.128-16-13.712-16H76.712C69.128,141,63,148.152,63,157
	v16H15c-8.832,0-16,7.168-16,16v16h-32c-8.832,0-16,7.168-16,16v64c0,8.832,7.168,16,16,16h32v16c0,8.832,7.168,16,16,16h32V621z
	 M-1,237v32h-16v-32H-1z M415,221H223v-16h192V221z M223,269v-16h128v16H223z M191,301h-32H63H31v-16v-64v-16h160v32V301z M143,333
	v8.512L79,394.84V333H143z M79,463.16L134.008,509L79,554.84V463.16z M143,474.84L87.992,429L143,383.16V474.84z M79,621v-24.512
	l64-53.328V621H79z"/>
<rect fill="#ffffff" x="63" y="237" width="96" height="32"/>
</svg>
