<?xml version="1.0" encoding="iso-8859-1"?>
<!-- Generator: Adobe Illustrator 19.2.1, SVG Export Plug-In . SVG Version: 6.00 Build 0)  -->
<svg version="1.1" id="&#x421;&#x43B;&#x43E;&#x439;_1"
	 xmlns="http://www.w3.org/2000/svg" xmlns:xlink="http://www.w3.org/1999/xlink" x="0px" y="0px" viewBox="0 0 13.609 13.6"
	 style="enable-background:new 0 0 13.609 13.6;" xml:space="preserve">
<path fill="#ffffff" d="M13.34,6.147l-0.676-0.68l0.316-0.906c0.168-0.476-0.082-1-0.558-1.172l-0.535-0.187v-0.57c0-0.508-0.414-0.918-0.918-0.918
	h-0.961L9.594,0.85C9.383,0.405,8.812,0.202,8.371,0.417L7.855,0.663L7.453,0.26c-0.344-0.347-0.949-0.347-1.297,0L5.477,0.94
	L4.574,0.62C4.105,0.452,3.566,0.714,3.398,1.178L3.211,1.714h-0.57c-0.504,0-0.914,0.414-0.914,0.918v0.96L0.855,4.007
	C0.402,4.225,0.207,4.772,0.426,5.229l0.246,0.516L0.27,6.147C0.094,6.319,0,6.549,0,6.796c0,0.246,0.098,0.476,0.27,0.648
	l0.679,0.68L0.629,9.03c-0.082,0.23-0.07,0.477,0.035,0.699c0.106,0.223,0.293,0.391,0.524,0.469l0.535,0.191v0.567
	c0,0.508,0.414,0.918,0.918,0.918h0.961l0.414,0.867c0.211,0.441,0.781,0.644,1.222,0.433l0.516-0.246l0.402,0.403
	C6.328,13.503,6.559,13.6,6.805,13.6s0.476-0.097,0.648-0.269l0.68-0.68l0.906,0.32c0.469,0.164,1.008-0.097,1.172-0.558
	l0.187-0.539h0.571c0.508,0,0.918-0.41,0.918-0.918V9.999l0.867-0.414c0.453-0.219,0.648-0.77,0.43-1.227l-0.246-0.512l0.402-0.402
	C13.699,7.085,13.699,6.503,13.34,6.147L13.34,6.147z M12.27,8.725l-1.368,0.653v1.511H9.703l-0.398,1.133l-1.43-0.504l-1.07,1.071
	l-0.848-0.848L4.879,12.26l-0.656-1.371H2.707V9.69L1.578,9.292l0.504-1.426l-1.07-1.074l0.847-0.848L1.34,4.862L2.707,4.21V2.698
	h1.199l0.403-1.133l1.425,0.508l1.071-1.074l0.851,0.847l1.078-0.519l0.657,1.371h1.511v1.199l1.133,0.399l-0.504,1.429l1.071,1.071
	L11.75,7.643L12.27,8.725z M12.27,8.725"/>
<path fill="#ffffff" d="M8.852,6.061c-0.926,0-1.516,0.735-1.516,1.699c0.008,1.02,0.656,1.633,1.473,1.633c0.785,0,1.5-0.59,1.5-1.722
	C10.309,6.745,9.785,6.061,8.852,6.061L8.852,6.061z M8.836,8.706c-0.367,0-0.559-0.41-0.551-0.977c0-0.543,0.168-0.976,0.551-0.976
	c0.391,0,0.531,0.425,0.531,0.976C9.367,8.339,9.191,8.706,8.836,8.706L8.836,8.706z M8.836,8.706"/>
<path fill="#ffffff" d="M8.086,3.811L4.977,9.413h0.671L8.77,3.811H8.086z M8.086,3.811"/>
<path fill="#ffffff" d="M6.41,5.421c0-0.926-0.527-1.61-1.461-1.61c-0.922,0-1.515,0.735-1.515,1.699c0,1.016,0.652,1.633,1.476,1.633
	C5.691,7.143,6.41,6.553,6.41,5.421L6.41,5.421z M4.934,6.452c-0.368,0-0.559-0.406-0.559-0.973c0-0.543,0.176-0.976,0.551-0.976
	c0.39,0,0.543,0.425,0.543,0.976C5.469,6.085,5.293,6.452,4.934,6.452L4.934,6.452z M4.934,6.452"/>
</svg>
