<?xml version="1.0" encoding="iso-8859-1"?>
<!-- Generator: Adobe Illustrator 19.2.1, SVG Export Plug-In . SVG Version: 6.00 Build 0)  -->
<svg version="1.1" id="&#x421;&#x43B;&#x43E;&#x439;_1"
	 xmlns="http://www.w3.org/2000/svg" xmlns:xlink="http://www.w3.org/1999/xlink" x="0px" y="0px" viewBox="0 0 16 16"
	 style="enable-background:new 0 0 16 16;" xml:space="preserve">
<g>
	<path fill="#ffffff" d="M11.359,4.641C10.48,3.68,9.199,3.199,8,3.199V8l-3.359,3.359c1.839,1.84,4.879,1.84,6.8,0
		C13.281,9.52,13.281,6.48,11.359,4.641L11.359,4.641z M8,0C3.602,0,0,3.602,0,8c0,4.398,3.602,8,8,8c4.398,0,8-3.602,8-8
		C16,3.602,12.398,0,8,0L8,0z M8,14.398c-3.52,0-6.398-2.878-6.398-6.398C1.602,4.48,4.48,1.602,8,1.602
		c3.52,0,6.398,2.878,6.398,6.398C14.398,11.52,11.52,14.398,8,14.398L8,14.398z M8,14.398"/>
</g>
</svg>
