<?xml version="1.0" encoding="iso-8859-1"?>
<!-- Generator: Adobe Illustrator 19.2.1, SVG Export Plug-In . SVG Version: 6.00 Build 0)  -->
<svg version="1.1" id="Capa_1" xmlns="http://www.w3.org/2000/svg" xmlns:xlink="http://www.w3.org/1999/xlink" x="0px" y="0px"
	 viewBox="-38.007 102 490.007 550" style="enable-background:new -38.007 102 490.007 550;" xml:space="preserve">
<g fill="#ffffff">
	<path d="M451.219,464.812l-0.044-0.133c-0.115-0.358-0.237-0.703-0.385-1.027c-0.635-1.421-1.51-2.705-2.631-3.843l-127.999-128
		c-2.441-2.442-5.687-3.794-9.16-3.809H145.721c1.477-4.853,2.255-9.933,2.279-15.006c-0.032-24.541-16.602-45.475-40.005-51.379
		c0.003-0.205,0.004-0.41,0.005-0.614c0-29.224-23.776-53-53-53S2,231.776,2,261.008c0,0.195,0.002,0.39,0.004,0.586
		c-26.269,6.524-43.68,32.27-39.351,59.485c1.012,6.361,3.131,12.375,6.313,17.92c-9.583,16.729-9.168,37.668,1.048,54.001
		c-11.596,18.523-10.428,42.511,2.79,59.813l-6.995,6.994c-2.456,2.455-3.808,5.719-3.809,9.192v170c0,7.168,5.832,13,13,13h464
		c7.168,0,13-5.832,13-13V469c0-0.506-0.072-0.938-0.142-1.245C451.76,466.752,451.545,465.765,451.219,464.812z M130,530v96H76v-96
		H130z M426,482v144H244V482H426z M327.633,408l-13.104-14h31.126l13.977,14H327.633z M372.63,456l-20.625-22h33.588l22,22H372.63z
		 M316.37,434l20.625,22H308.63l-20.625-22H316.37z M134.383,354h42.987l13.127,14h-42.115L134.383,354z M214.874,394l13.122,14
		h-39.613l-14-14H214.874z M226.126,368l-13.122-14h28.366l13.127,14H226.126z M278.874,394l13.122,14H263.63l-13.127-14H278.874z
		 M290.126,368l-13.122-14h28.612l14,14H290.126z M-4.238,402.1c4.919-5.017,4.919-13.182,0-18.2l-0.026-0.026
		c-9.855-9.909-10.338-25.883-1.049-36.424c4.188-4.896,4.188-12.003-0.046-16.953C-9.619,325.654-11.978,319.434-12,313
		c0-14.782,11.941-26.827,26.761-26.998c0.506,0.065,1.075,0.126,1.656,0.151c7.165,0.378,13.289-5.141,13.665-12.3
		c0.082-1.562-0.115-3.109-0.586-4.6l-0.041-0.124C28.54,266.479,28.05,263.713,28,261c0-14.888,12.112-27,27-27
		s27,12.112,27.001,26.916c-0.048,2.801-0.533,5.564-1.442,8.213l-0.039,0.117c-2.16,6.835,1.643,14.153,8.478,16.313
		c1.469,0.464,2.991,0.661,4.533,0.59c0.603-0.018,1.21-0.067,1.811-0.146C110.073,286.185,122,298.226,122,312.991
		c-0.01,5.363-1.661,10.613-4.687,15.009l-14.396,0c-1.346,0.023-2.668,0.251-3.939,0.681c-0.686,0.151-1.319,0.431-1.891,0.834
		c-0.828,0.426-1.604,0.939-2.296,1.51c-0.267,0.169-0.624,0.425-0.982,0.783L68,357.617V285c0-7.168-5.832-13-13-13
		s-13,5.832-13,13v32.617l-9.871-9.87c-5.156-4.981-13.402-4.836-18.382,0.319c-4.891,5.064-4.891,12.998,0.061,18.125L42,354.383
		v29.226l-3.001,3.002l-6.869-6.863c-5.156-4.981-13.402-4.836-18.382,0.319c-4.891,5.064-4.891,12.998,0.061,18.125l6.807,6.807
		l-29.145,29.113c-2.261-3.968-3.472-8.48-3.471-13.116C-12.007,413.879-9.256,407.175-4.238,402.1z M143,504H63
		c-7.168,0-13,5.832-13,13v109h-62V474.384l115-115l115,115V626h-62V517C156,509.832,150.168,504,143,504z M252.37,434l20.625,22
		h-36.611l-22.001-22H252.37z"/>
	<path d="M359,134c-33.636,0-61,27.364-61,61s27.364,61,61.007,61c33.588-0.043,60.949-27.405,60.993-60.994V195
		C420,161.364,392.636,134,359,134z M359,160c19.299,0,35,15.701,35,34.994c-0.023,19.279-15.727,34.983-35.005,35.006
		C339.698,229.998,324,214.298,324,195C324,175.701,339.701,160,359,160z"/>
	<rect x="346" y="102" width="26" height="26"/>
	<rect x="346" y="262" width="26" height="26"/>
	<rect x="266" y="182" width="26" height="26"/>
	<rect x="426" y="182" width="26" height="26"/>
	<rect x="289.433" y="125.43" transform="matrix(0.7071 -0.7071 0.7071 0.7071 -9.3063 254.3934)" width="26" height="26"/>
	<rect x="402.557" y="238.566" transform="matrix(0.7071 -0.7071 0.7071 0.7071 -56.1722 367.5188)" width="26" height="26"/>
	<rect x="289.427" y="238.56" transform="matrix(0.7071 -0.7071 0.7071 0.7071 -89.3019 287.5232)" width="26" height="26"/>
	<rect x="402.562" y="125.437" transform="matrix(0.7071 -0.7071 0.7071 0.7071 23.8259 334.3942)" width="26" height="26"/>
</g>
</svg>
