<?xml version="1.0" encoding="iso-8859-1"?>
<!-- Generator: Adobe Illustrator 19.2.1, SVG Export Plug-In . SVG Version: 6.00 Build 0)  -->
<svg data-theme-svg="favicon" version="1.1" width="70px" height="70px" xmlns="http://www.w3.org/2000/svg" xmlns:xlink="http://www.w3.org/1999/xlink" x="0px" y="0px"
	 viewBox="0 0 48.383 48.382" style="enable-background:new 0 0 48.383 48.382;" xml:space="preserve">
<path fill="#primary-color#" class="theme-fill" d="M7.602,48.382h33.179c5.301,0,7.602-2.296,7.602-7.601V7.601C48.383,2.296,46.082,0,40.781,0H7.602C2.297,0,0,2.296,0,7.601
	v33.18C0,46.086,2.297,48.382,7.602,48.382L7.602,48.382z M5.09,37.769l5.863-5.862c0.024-0.024,0.059-0.039,0.086-0.06
	l-1.355-1.363c-0.207-0.211-0.141-0.348,0.152-0.309l7.098,0.957c0.015-0.019,0.027-0.039,0.043-0.058
	c1.117-1.442,2.839-2.985,4.859-4.341c0.789-0.534,1.585-1.004,2.367-1.418l-0.562-0.991c-0.235-0.418-0.235-1.055,0-1.469
	l2.769-5.035c0.23-0.418,0.809-0.828,1.285-0.828h1.141l-0.008-2.344l-1.719-1.72c-0.336-0.336-0.336-0.886,0-1.222l1.695-1.696
	V9.432l-1.695-1.694c-0.336-0.336-0.336-0.883,0-1.224l1.672-1.672v-0.75c-0.004-0.882,0.707-1.504,1.59-1.504h0.008
	c0.883,0,1.598,0.528,1.602,1.411l0.055,12.992h1.16c0.477,0,1.051,0.429,1.285,0.847l2.77,5.008c0.234,0.418,0.234,1.117,0,1.535
	l-2.77,4.809c-0.234,0.418-0.809,0.603-1.285,0.603h-3.227c0.879-0.875,1.543-1.922,1.973-3.168c0.16-0.103,0.313-0.215,0.449-0.356
	c0.926-0.949,0.906-2.469-0.043-3.397c-0.289-0.282-0.633-0.465-0.996-0.575c-0.531-0.156-1.105-0.136-1.621,0.083
	c-0.285,0.121-0.551,0.296-0.781,0.531c-0.227,0.234-0.398,0.504-0.512,0.793c0.434-0.086,0.844-0.146,1.207-0.146
	c0.875,0,1.488,0.255,1.824,0.755c0.852,1.266-0.512,3.426-2.688,5.48c-0.555,0.519-1.156,1.031-1.789,1.519
	c-0.453,0.353-0.922,0.692-1.398,1.013c-0.957,0.644-1.922,1.198-2.859,1.668c-0.75,0.375-1.48,0.687-2.168,0.929
	c-0.714,0.25-1.386,0.426-1.984,0.512c-0.281,0.043-0.551,0.067-0.797,0.067c-0.672,0-1.187-0.153-1.543-0.45
	c-0.109-0.089-0.207-0.188-0.285-0.304c-0.211-0.313-0.289-0.692-0.238-1.125c-0.387,0.328-0.633,0.808-0.633,1.354
	c0,0.985,0.797,1.781,1.781,1.781c0.555,0,1.047-0.257,1.371-0.656c0.852-0.078,1.653-0.272,2.391-0.601l0.68,6.211
	c0.031,0.296-0.114,0.363-0.321,0.152l-1.351-1.359c-0.012,0.015-0.02,0.039-0.035,0.054l-5.864,5.863
	c-0.207,0.208-0.547,0.208-0.758,0l-7.89-7.895C4.879,38.319,4.879,37.979,5.09,37.769L5.09,37.769z"/>
<path fill="#primary-color#" class="theme-fill" d="M17.093,33.962c0.223,0.329,0.754,0.399,1.16,0.399c0.254,0,0.535-0.035,0.832-0.082c0.559-0.095,1.188-0.271,1.864-0.521
	c0.906-0.328,1.886-0.785,2.891-1.347c0.59-0.332,1.188-0.692,1.781-1.09c0.438-0.297,0.852-0.595,1.246-0.896
	c0.43-0.328,0.836-0.656,1.211-0.983c2.527-2.192,3.73-4.238,3.199-5.024c-0.219-0.328-0.75-0.397-1.16-0.397
	c-0.398,0-0.867,0.069-1.371,0.19c-0.012,0.637,0.223,1.278,0.719,1.758c0.117,0.117,0.242,0.215,0.375,0.301
	c-0.555,1.121-1.438,1.935-2.57,2.578c-0.094,0.056-0.172,0.117-0.242,0.181c-0.051-0.052-0.109-0.103-0.145-0.164l-1.809-3.188
	c-0.766,0.403-1.547,0.864-2.32,1.383c-1.809,1.216-3.36,2.574-4.423,3.859l1.813,0.247c0.293,0.039,0.558,0.308,0.59,0.601
	l0.125,1.156c-0.617,0.387-1.328,0.598-2.067,0.684c-0.32-0.452-0.851-0.754-1.453-0.754c-0.078,0-0.156,0.013-0.23,0.023
	c-0.149,0.415-0.164,0.75-0.055,0.993C17.07,33.9,17.074,33.935,17.093,33.962L17.093,33.962z"/>
</svg>
