<?xml version="1.0" encoding="utf-8"?>
<svg version="1.1" xmlns="http://www.w3.org/2000/svg" xmlns:xlink="http://www.w3.org/1999/xlink" x="0px" y="0px"
	 viewBox="0 0 32 52" style="enable-background:new 0 0 32 52;" xml:space="preserve">
    <circle xmlns="http://www.w3.org/2000/svg" cx="16" cy="16" r="13" fill="white"/>
	<path fill="#primary-color#" class="theme-fill" d="M16.2,0C7.2,0,0,7.2,0,16c0,11.2,16.2,35.2,16.2,35.2s16.2-24,16.2-35.2C32.3,7.2,25.1,0,16.2,0L16.2,0z
		 M17.7,28.7c-0.5,0-1,0.1-1.5,0.1c-0.5,0-1,0-1.5-0.1C8.2,28,3.2,22.6,3.2,16C3.2,8.9,9,3.2,16.2,3.2c7.1,0,12.9,5.7,12.9,12.8
		C29.1,22.6,24.1,28,17.7,28.7L17.7,28.7z"/>
	<path fill="#primary-color#" class="theme-fill" d="M24.9,15.9l-3.3-3.3V7.7h-2.2v2.7L16,7.2l-8.9,8.8v0.5h2.2V22h5.5v-3.3h2.2V22h5.5v-5.5h2.2V15.9z"/>
</svg>
