<svg version="1.1" xmlns="http://www.w3.org/2000/svg" width="1024" height="1024" viewBox="0 0 1024 1024">
<path fill="#55b733" d="M0 422.956v524.052h237.808v-524.052h-237.808zM118.904 868.172c-18.44 0-33.392-14.95-33.392-33.392s14.95-33.392 33.392-33.392c18.44 0 33.392 14.95 33.392 33.392s-14.95 33.392-33.392 33.392zM1024 430.646c0-41.65-33.764-75.414-75.414-75.414h-281.414c0 0 62.118-72.842 62.118-205.544 0-46.524-37.714-84.238-84.238-84.238s-84.238 37.714-84.238 84.238c0 86.792-71.854 123.708-124.014 193.712-43.654 58.59-46.684 126.498-111.438 126.498-7.91 0-14.778 0-20.772 0v447.408c32.096 14.386 55.694 41.24 88.214 41.24 44.41 0 489.096 0 489.096 0 41.65 0 75.414-33.764 75.414-75.414s-33.764-75.414-75.414-75.414h22.23c41.65 0 75.414-33.764 75.414-75.414s-33.764-75.414-75.414-75.414h22.23c41.65 0 75.414-33.762 75.414-75.414s-33.764-75.414-75.414-75.414h22.23c41.646 0 75.41-33.766 75.41-75.416z"></path>
</svg>
